<mxfile host="app.diagrams.net" agent="Mozilla/5.0 (Windows NT 10.0; Win64; x64) AppleWebKit/537.36 (KHTML, like Gecko) Chrome/131.0.0.0 Safari/537.36" version="25.0.3" pages="2">
  <diagram name="cpp" id="GzzUvKMkTQ1yRovQ7K6j">
    <mxGraphModel dx="1050" dy="522" grid="1" gridSize="1" guides="1" tooltips="1" connect="1" arrows="1" fold="1" page="1" pageScale="1" pageWidth="1000" pageHeight="1000" math="0" shadow="1">
      <root>
        <mxCell id="8XgaqsMMWeKaeEVlrfNf-0" />
        <mxCell id="8XgaqsMMWeKaeEVlrfNf-1" parent="8XgaqsMMWeKaeEVlrfNf-0" />
        <mxCell id="8XgaqsMMWeKaeEVlrfNf-2" value="&lt;span style=&quot;font-size: 15px&quot;&gt;Look-up Keys&lt;/span&gt;" style="rhombus;whiteSpace=wrap;html=1;fontFamily=Helvetica;fontSize=12;fontColor=#000000;align=center;strokeColor=#000000;strokeWidth=2;fillColor=#FFFFA0;" parent="8XgaqsMMWeKaeEVlrfNf-1" vertex="1">
          <mxGeometry x="5" y="409" width="127.5" height="78" as="geometry" />
        </mxCell>
        <mxCell id="8XgaqsMMWeKaeEVlrfNf-3" value="" style="edgeStyle=orthogonalEdgeStyle;rounded=0;orthogonalLoop=1;jettySize=auto;html=1;fontColor=#F700FF;strokeWidth=2;" parent="8XgaqsMMWeKaeEVlrfNf-1" source="8XgaqsMMWeKaeEVlrfNf-4" target="8XgaqsMMWeKaeEVlrfNf-6" edge="1">
          <mxGeometry relative="1" as="geometry" />
        </mxCell>
        <mxCell id="8XgaqsMMWeKaeEVlrfNf-4" value="&lt;font style=&quot;font-size: 18px&quot; face=&quot;Helvetica&quot;&gt;Start&lt;/font&gt;" style="rounded=1;whiteSpace=wrap;html=1;fillColor=#E1DFCF;arcSize=60;labelBorderColor=none;strokeWidth=2;fontFamily=comic sans;fontSize=15;snapToPoint=0;" parent="8XgaqsMMWeKaeEVlrfNf-1" vertex="1">
          <mxGeometry x="88" y="1" width="120" height="40" as="geometry" />
        </mxCell>
        <mxCell id="8XgaqsMMWeKaeEVlrfNf-5" value="" style="edgeStyle=orthogonalEdgeStyle;rounded=0;orthogonalLoop=1;jettySize=auto;html=1;fontColor=#F700FF;strokeWidth=2;" parent="8XgaqsMMWeKaeEVlrfNf-1" source="8XgaqsMMWeKaeEVlrfNf-6" target="8XgaqsMMWeKaeEVlrfNf-9" edge="1">
          <mxGeometry relative="1" as="geometry" />
        </mxCell>
        <mxCell id="8XgaqsMMWeKaeEVlrfNf-6" value="&lt;font style=&quot;font-size: 15px&quot;&gt;Order is&lt;br&gt;Important&lt;/font&gt;" style="rhombus;whiteSpace=wrap;html=1;fontFamily=Helvetica;fontSize=12;fontColor=#000000;align=center;strokeColor=#000000;strokeWidth=2;fillColor=#FFFFA0;" parent="8XgaqsMMWeKaeEVlrfNf-1" vertex="1">
          <mxGeometry x="84.5" y="75" width="127" height="78" as="geometry" />
        </mxCell>
        <mxCell id="8XgaqsMMWeKaeEVlrfNf-7" value="" style="edgeStyle=orthogonalEdgeStyle;rounded=0;orthogonalLoop=1;jettySize=auto;html=1;fontColor=#F700FF;strokeWidth=2;" parent="8XgaqsMMWeKaeEVlrfNf-1" source="8XgaqsMMWeKaeEVlrfNf-9" target="8XgaqsMMWeKaeEVlrfNf-12" edge="1">
          <mxGeometry relative="1" as="geometry" />
        </mxCell>
        <mxCell id="8XgaqsMMWeKaeEVlrfNf-8" value="" style="edgeStyle=orthogonalEdgeStyle;rounded=0;orthogonalLoop=1;jettySize=auto;html=1;fontColor=#F700FF;strokeWidth=2;" parent="8XgaqsMMWeKaeEVlrfNf-1" source="8XgaqsMMWeKaeEVlrfNf-9" target="8XgaqsMMWeKaeEVlrfNf-13" edge="1">
          <mxGeometry relative="1" as="geometry" />
        </mxCell>
        <mxCell id="8XgaqsMMWeKaeEVlrfNf-9" value="&lt;span style=&quot;font-size: 15px&quot;&gt;Last In,&lt;br&gt;First Out&lt;/span&gt;" style="rhombus;whiteSpace=wrap;html=1;fontFamily=Helvetica;fontSize=12;fontColor=#000000;align=center;strokeColor=#000000;strokeWidth=2;fillColor=#FFFFA0;" parent="8XgaqsMMWeKaeEVlrfNf-1" vertex="1">
          <mxGeometry x="84.5" y="188" width="127.5" height="78" as="geometry" />
        </mxCell>
        <mxCell id="8XgaqsMMWeKaeEVlrfNf-10" value="" style="edgeStyle=orthogonalEdgeStyle;rounded=0;orthogonalLoop=1;jettySize=auto;html=1;strokeWidth=2;fontColor=#F700FF;" parent="8XgaqsMMWeKaeEVlrfNf-1" source="8XgaqsMMWeKaeEVlrfNf-12" target="8XgaqsMMWeKaeEVlrfNf-14" edge="1">
          <mxGeometry relative="1" as="geometry" />
        </mxCell>
        <mxCell id="8XgaqsMMWeKaeEVlrfNf-11" value="" style="edgeStyle=orthogonalEdgeStyle;rounded=0;orthogonalLoop=1;jettySize=auto;html=1;strokeWidth=2;fontColor=#F700FF;" parent="8XgaqsMMWeKaeEVlrfNf-1" source="8XgaqsMMWeKaeEVlrfNf-12" target="8XgaqsMMWeKaeEVlrfNf-17" edge="1">
          <mxGeometry relative="1" as="geometry" />
        </mxCell>
        <mxCell id="8XgaqsMMWeKaeEVlrfNf-12" value="&lt;font style=&quot;font-size: 15px&quot;&gt;First In,&lt;br&gt;First Out&lt;/font&gt;" style="rhombus;whiteSpace=wrap;html=1;fontFamily=Helvetica;fontSize=12;fontColor=#000000;align=center;strokeColor=#000000;strokeWidth=2;fillColor=#FFFFA0;" parent="8XgaqsMMWeKaeEVlrfNf-1" vertex="1">
          <mxGeometry x="253" y="188" width="127" height="78" as="geometry" />
        </mxCell>
        <mxCell id="8XgaqsMMWeKaeEVlrfNf-13" value="&lt;font style=&quot;font-size: 18px&quot; color=&quot;#000000&quot;&gt;stack&lt;/font&gt;" style="rounded=0;whiteSpace=wrap;html=1;labelBackgroundColor=none;strokeColor=#000000;strokeWidth=2;fontColor=#F700FF;fillColor=#D5EFFF;imageWidth=24;" parent="8XgaqsMMWeKaeEVlrfNf-1" vertex="1">
          <mxGeometry x="98.25" y="308" width="100" height="40" as="geometry" />
        </mxCell>
        <mxCell id="8XgaqsMMWeKaeEVlrfNf-14" value="&lt;font style=&quot;font-size: 18px&quot; color=&quot;#000000&quot;&gt;queue&lt;/font&gt;" style="rounded=0;whiteSpace=wrap;html=1;labelBackgroundColor=none;strokeColor=#000000;strokeWidth=2;fontColor=#F700FF;fillColor=#D5EFFF;imageWidth=24;" parent="8XgaqsMMWeKaeEVlrfNf-1" vertex="1">
          <mxGeometry x="266.5" y="308" width="100" height="40" as="geometry" />
        </mxCell>
        <mxCell id="8XgaqsMMWeKaeEVlrfNf-15" value="" style="edgeStyle=orthogonalEdgeStyle;rounded=0;orthogonalLoop=1;jettySize=auto;html=1;strokeWidth=2;fontColor=#F700FF;" parent="8XgaqsMMWeKaeEVlrfNf-1" source="8XgaqsMMWeKaeEVlrfNf-17" target="8XgaqsMMWeKaeEVlrfNf-19" edge="1">
          <mxGeometry relative="1" as="geometry" />
        </mxCell>
        <mxCell id="8XgaqsMMWeKaeEVlrfNf-16" value="" style="edgeStyle=none;rounded=0;orthogonalLoop=1;jettySize=auto;html=1;startArrow=none;startFill=0;targetPerimeterSpacing=0;strokeWidth=2;fontColor=#000000;" parent="8XgaqsMMWeKaeEVlrfNf-1" source="8XgaqsMMWeKaeEVlrfNf-17" target="8XgaqsMMWeKaeEVlrfNf-21" edge="1">
          <mxGeometry relative="1" as="geometry" />
        </mxCell>
        <mxCell id="8XgaqsMMWeKaeEVlrfNf-17" value="&lt;font style=&quot;font-size: 15px&quot;&gt;Best In,&lt;br&gt;First Out&lt;/font&gt;" style="rhombus;whiteSpace=wrap;html=1;fontFamily=Helvetica;fontSize=12;fontColor=#000000;align=center;strokeColor=#000000;strokeWidth=2;fillColor=#FFFFA0;" parent="8XgaqsMMWeKaeEVlrfNf-1" vertex="1">
          <mxGeometry x="422" y="188" width="127" height="78" as="geometry" />
        </mxCell>
        <mxCell id="8XgaqsMMWeKaeEVlrfNf-18" value="" style="edgeStyle=none;rounded=0;orthogonalLoop=1;jettySize=auto;html=1;startArrow=none;startFill=0;endArrow=classic;endFill=1;targetPerimeterSpacing=0;strokeWidth=2;fontColor=#000000;" parent="8XgaqsMMWeKaeEVlrfNf-1" source="8XgaqsMMWeKaeEVlrfNf-19" target="8XgaqsMMWeKaeEVlrfNf-42" edge="1">
          <mxGeometry relative="1" as="geometry" />
        </mxCell>
        <mxCell id="8XgaqsMMWeKaeEVlrfNf-19" value="&lt;font style=&quot;font-size: 15px&quot;&gt;Keep Sorted&lt;br&gt;Elements&lt;/font&gt;" style="rhombus;whiteSpace=wrap;html=1;fontFamily=Helvetica;fontSize=12;fontColor=#000000;align=center;strokeColor=#000000;strokeWidth=2;fillColor=#FFFFA0;" parent="8XgaqsMMWeKaeEVlrfNf-1" vertex="1">
          <mxGeometry x="597" y="188" width="127" height="78" as="geometry" />
        </mxCell>
        <mxCell id="8XgaqsMMWeKaeEVlrfNf-20" value="" style="edgeStyle=segmentEdgeStyle;endArrow=classic;html=1;strokeWidth=2;fontColor=#000000;exitX=1;exitY=0.5;exitDx=0;exitDy=0;rounded=0;entryX=0.5;entryY=0;entryDx=0;entryDy=0;" parent="8XgaqsMMWeKaeEVlrfNf-1" source="8XgaqsMMWeKaeEVlrfNf-19" target="8XgaqsMMWeKaeEVlrfNf-22" edge="1">
          <mxGeometry width="50" height="50" relative="1" as="geometry">
            <mxPoint x="693" y="305" as="sourcePoint" />
            <mxPoint x="853" y="340" as="targetPoint" />
          </mxGeometry>
        </mxCell>
        <mxCell id="8XgaqsMMWeKaeEVlrfNf-21" value="&lt;font style=&quot;font-size: 18px&quot; color=&quot;#000000&quot;&gt;priority_queue&lt;/font&gt;" style="rounded=0;whiteSpace=wrap;html=1;labelBackgroundColor=none;strokeColor=#000000;strokeWidth=2;fontColor=#F700FF;fillColor=#D5EFFF;imageWidth=24;" parent="8XgaqsMMWeKaeEVlrfNf-1" vertex="1">
          <mxGeometry x="424" y="308" width="122" height="40" as="geometry" />
        </mxCell>
        <mxCell id="8XgaqsMMWeKaeEVlrfNf-22" value="&lt;span style=&quot;font-size: 15px&quot;&gt;Main Purpose&lt;/span&gt;" style="rhombus;whiteSpace=wrap;html=1;fontFamily=Helvetica;fontSize=12;fontColor=#000000;align=center;strokeWidth=2;fillColor=#FFFFA0;" parent="8XgaqsMMWeKaeEVlrfNf-1" vertex="1">
          <mxGeometry x="789" y="354" width="127" height="78" as="geometry" />
        </mxCell>
        <mxCell id="8XgaqsMMWeKaeEVlrfNf-23" value="" style="edgeStyle=none;rounded=0;orthogonalLoop=1;jettySize=auto;html=1;startArrow=none;startFill=0;targetPerimeterSpacing=0;strokeWidth=2;fontColor=#000000;endArrow=classic;endFill=1;" parent="8XgaqsMMWeKaeEVlrfNf-1" source="8XgaqsMMWeKaeEVlrfNf-24" target="8XgaqsMMWeKaeEVlrfNf-29" edge="1">
          <mxGeometry relative="1" as="geometry" />
        </mxCell>
        <mxCell id="8XgaqsMMWeKaeEVlrfNf-24" value="&lt;span style=&quot;font-size: 15px&quot;&gt;Look-up Keys&lt;/span&gt;" style="rhombus;whiteSpace=wrap;html=1;fontFamily=Helvetica;fontSize=12;fontColor=#000000;align=center;strokeColor=#000000;strokeWidth=2;fillColor=#FFFFA0;" parent="8XgaqsMMWeKaeEVlrfNf-1" vertex="1">
          <mxGeometry x="854" y="393" width="127" height="78" as="geometry" />
        </mxCell>
        <mxCell id="8XgaqsMMWeKaeEVlrfNf-25" value="" style="edgeStyle=none;rounded=0;orthogonalLoop=1;jettySize=auto;html=1;startArrow=none;startFill=0;endArrow=classic;endFill=1;targetPerimeterSpacing=0;strokeWidth=2;fontColor=#000000;" parent="8XgaqsMMWeKaeEVlrfNf-1" source="8XgaqsMMWeKaeEVlrfNf-26" target="8XgaqsMMWeKaeEVlrfNf-34" edge="1">
          <mxGeometry relative="1" as="geometry" />
        </mxCell>
        <mxCell id="8XgaqsMMWeKaeEVlrfNf-26" value="&lt;span style=&quot;font-size: 15px&quot;&gt;In-order&lt;br&gt;Traversals&lt;br&gt;&lt;/span&gt;" style="rhombus;whiteSpace=wrap;html=1;fontFamily=Helvetica;fontSize=12;fontColor=#000000;align=center;strokeColor=#000000;strokeWidth=2;fillColor=#FFFFA0;" parent="8XgaqsMMWeKaeEVlrfNf-1" vertex="1">
          <mxGeometry x="725" y="394" width="127" height="78" as="geometry" />
        </mxCell>
        <mxCell id="8XgaqsMMWeKaeEVlrfNf-27" value="" style="edgeStyle=none;rounded=0;orthogonalLoop=1;jettySize=auto;html=1;startArrow=none;startFill=0;targetPerimeterSpacing=0;strokeWidth=2;fontColor=#000000;" parent="8XgaqsMMWeKaeEVlrfNf-1" source="8XgaqsMMWeKaeEVlrfNf-29" target="8XgaqsMMWeKaeEVlrfNf-32" edge="1">
          <mxGeometry relative="1" as="geometry" />
        </mxCell>
        <mxCell id="8XgaqsMMWeKaeEVlrfNf-28" style="edgeStyle=none;rounded=0;orthogonalLoop=1;jettySize=auto;html=1;exitX=0;exitY=1;exitDx=0;exitDy=0;entryX=1;entryY=0;entryDx=0;entryDy=0;startArrow=none;startFill=0;endArrow=classic;endFill=1;targetPerimeterSpacing=0;strokeWidth=2;fontColor=#000000;" parent="8XgaqsMMWeKaeEVlrfNf-1" source="8XgaqsMMWeKaeEVlrfNf-29" target="8XgaqsMMWeKaeEVlrfNf-38" edge="1">
          <mxGeometry relative="1" as="geometry" />
        </mxCell>
        <mxCell id="8XgaqsMMWeKaeEVlrfNf-29" value="&lt;span style=&quot;font-size: 15px&quot;&gt;Allow&lt;br&gt;Duplicates&lt;br&gt;&lt;/span&gt;" style="rhombus;whiteSpace=wrap;html=1;fontFamily=Helvetica;fontSize=12;fontColor=#000000;align=center;strokeColor=#000000;strokeWidth=2;fillColor=#FFFFA0;" parent="8XgaqsMMWeKaeEVlrfNf-1" vertex="1">
          <mxGeometry x="854" y="699" width="127" height="78" as="geometry" />
        </mxCell>
        <mxCell id="8XgaqsMMWeKaeEVlrfNf-30" value="" style="edgeStyle=none;rounded=0;orthogonalLoop=1;jettySize=auto;html=1;startArrow=none;startFill=0;targetPerimeterSpacing=0;strokeWidth=2;fontColor=#000000;" parent="8XgaqsMMWeKaeEVlrfNf-1" source="8XgaqsMMWeKaeEVlrfNf-32" target="8XgaqsMMWeKaeEVlrfNf-33" edge="1">
          <mxGeometry relative="1" as="geometry" />
        </mxCell>
        <mxCell id="8XgaqsMMWeKaeEVlrfNf-31" style="edgeStyle=none;rounded=0;orthogonalLoop=1;jettySize=auto;html=1;exitX=0;exitY=1;exitDx=0;exitDy=0;entryX=0.5;entryY=0;entryDx=0;entryDy=0;startArrow=none;startFill=0;endArrow=classic;endFill=1;targetPerimeterSpacing=0;strokeWidth=2;fontColor=#000000;" parent="8XgaqsMMWeKaeEVlrfNf-1" source="8XgaqsMMWeKaeEVlrfNf-32" target="8XgaqsMMWeKaeEVlrfNf-35" edge="1">
          <mxGeometry relative="1" as="geometry" />
        </mxCell>
        <mxCell id="8XgaqsMMWeKaeEVlrfNf-32" value="&lt;span style=&quot;font-size: 15px&quot;&gt;Separate&lt;/span&gt;&lt;br&gt;&lt;span style=&quot;font-size: 15px&quot;&gt;Key/Value&lt;/span&gt;" style="rhombus;whiteSpace=wrap;html=1;fontFamily=Helvetica;fontSize=12;fontColor=#000000;align=center;strokeColor=#000000;strokeWidth=2;fillColor=#FFFFA0;" parent="8XgaqsMMWeKaeEVlrfNf-1" vertex="1">
          <mxGeometry x="854" y="810" width="127" height="78" as="geometry" />
        </mxCell>
        <mxCell id="8XgaqsMMWeKaeEVlrfNf-33" value="&lt;font color=&quot;#000000&quot; style=&quot;font-size: 18px&quot;&gt;multiset&lt;/font&gt;" style="rounded=0;whiteSpace=wrap;html=1;fontFamily=Helvetica;fontSize=12;fontColor=#F700FF;align=center;strokeColor=#000000;strokeWidth=2;fillColor=#D5EFFF;" parent="8XgaqsMMWeKaeEVlrfNf-1" vertex="1">
          <mxGeometry x="870" y="920" width="96" height="41" as="geometry" />
        </mxCell>
        <mxCell id="8XgaqsMMWeKaeEVlrfNf-34" value="&lt;font color=&quot;#000000&quot;&gt;&lt;font style=&quot;font-size: 18px&quot;&gt;vector&lt;br&gt;(sorted)&lt;/font&gt;&lt;br&gt;&lt;/font&gt;" style="whiteSpace=wrap;html=1;strokeWidth=2;fillColor=#D5EFFF;rounded=0;fontColor=#F700FF;" parent="8XgaqsMMWeKaeEVlrfNf-1" vertex="1">
          <mxGeometry x="740" y="635" width="97" height="41" as="geometry" />
        </mxCell>
        <mxCell id="8XgaqsMMWeKaeEVlrfNf-35" value="&lt;font color=&quot;#000000&quot; style=&quot;font-size: 18px&quot;&gt;multimap&lt;/font&gt;" style="rounded=0;whiteSpace=wrap;html=1;fontFamily=Helvetica;fontSize=12;fontColor=#F700FF;align=center;strokeColor=#000000;strokeWidth=2;fillColor=#D5EFFF;" parent="8XgaqsMMWeKaeEVlrfNf-1" vertex="1">
          <mxGeometry x="765" y="920" width="96" height="41" as="geometry" />
        </mxCell>
        <mxCell id="8XgaqsMMWeKaeEVlrfNf-36" style="edgeStyle=none;rounded=0;orthogonalLoop=1;jettySize=auto;html=1;exitX=0;exitY=1;exitDx=0;exitDy=0;entryX=0.5;entryY=0;entryDx=0;entryDy=0;startArrow=none;startFill=0;endArrow=classic;endFill=1;targetPerimeterSpacing=0;strokeWidth=2;fontColor=#000000;" parent="8XgaqsMMWeKaeEVlrfNf-1" source="8XgaqsMMWeKaeEVlrfNf-38" target="8XgaqsMMWeKaeEVlrfNf-40" edge="1">
          <mxGeometry relative="1" as="geometry" />
        </mxCell>
        <mxCell id="8XgaqsMMWeKaeEVlrfNf-37" value="" style="edgeStyle=none;rounded=0;orthogonalLoop=1;jettySize=auto;html=1;startArrow=none;startFill=0;endArrow=classic;endFill=1;targetPerimeterSpacing=0;strokeWidth=2;fontColor=#000000;" parent="8XgaqsMMWeKaeEVlrfNf-1" source="8XgaqsMMWeKaeEVlrfNf-38" target="8XgaqsMMWeKaeEVlrfNf-39" edge="1">
          <mxGeometry relative="1" as="geometry" />
        </mxCell>
        <mxCell id="8XgaqsMMWeKaeEVlrfNf-38" value="&lt;span style=&quot;font-size: 15px&quot;&gt;Separate&lt;br&gt;Key/Value&lt;br&gt;&lt;/span&gt;" style="rhombus;whiteSpace=wrap;html=1;fontFamily=Helvetica;fontSize=12;fontColor=#000000;align=center;strokeColor=#000000;strokeWidth=2;fillColor=#FFFFA0;" parent="8XgaqsMMWeKaeEVlrfNf-1" vertex="1">
          <mxGeometry x="654" y="810" width="127" height="78" as="geometry" />
        </mxCell>
        <mxCell id="8XgaqsMMWeKaeEVlrfNf-39" value="&lt;font color=&quot;#000000&quot; style=&quot;font-size: 18px&quot;&gt;set&lt;/font&gt;" style="rounded=0;whiteSpace=wrap;html=1;fontFamily=Helvetica;fontSize=12;fontColor=#F700FF;align=center;strokeColor=#000000;strokeWidth=2;fillColor=#D5EFFF;" parent="8XgaqsMMWeKaeEVlrfNf-1" vertex="1">
          <mxGeometry x="677" y="921" width="79" height="40" as="geometry" />
        </mxCell>
        <mxCell id="8XgaqsMMWeKaeEVlrfNf-40" value="&lt;font color=&quot;#000000&quot; style=&quot;font-size: 18px&quot;&gt;map&lt;br&gt;&lt;/font&gt;" style="rounded=0;whiteSpace=wrap;html=1;fontFamily=Helvetica;fontSize=12;fontColor=#F700FF;align=center;strokeColor=#000000;strokeWidth=2;fillColor=#D5EFFF;" parent="8XgaqsMMWeKaeEVlrfNf-1" vertex="1">
          <mxGeometry x="589" y="920" width="79" height="41" as="geometry" />
        </mxCell>
        <mxCell id="8XgaqsMMWeKaeEVlrfNf-41" value="" style="edgeStyle=none;rounded=0;orthogonalLoop=1;jettySize=auto;html=1;startArrow=none;startFill=0;endArrow=classic;endFill=1;targetPerimeterSpacing=0;strokeWidth=2;fontColor=#000000;" parent="8XgaqsMMWeKaeEVlrfNf-1" source="8XgaqsMMWeKaeEVlrfNf-42" target="8XgaqsMMWeKaeEVlrfNf-44" edge="1">
          <mxGeometry relative="1" as="geometry" />
        </mxCell>
        <mxCell id="8XgaqsMMWeKaeEVlrfNf-42" value="&lt;font style=&quot;font-size: 15px&quot;&gt;Insert/Erase&lt;br&gt;at middle&lt;/font&gt;" style="rhombus;whiteSpace=wrap;html=1;fontFamily=Helvetica;fontSize=12;fontColor=#000000;align=center;strokeColor=#000000;strokeWidth=2;fillColor=#FFFFA0;" parent="8XgaqsMMWeKaeEVlrfNf-1" vertex="1">
          <mxGeometry x="597" y="347" width="127" height="78" as="geometry" />
        </mxCell>
        <mxCell id="8XgaqsMMWeKaeEVlrfNf-44" value="&lt;font style=&quot;font-size: 15px&quot;&gt;Frequent&lt;br&gt;Traversals&lt;/font&gt;" style="rhombus;whiteSpace=wrap;html=1;fontFamily=Helvetica;fontSize=12;fontColor=#000000;align=center;strokeColor=#000000;strokeWidth=2;fillColor=#FFFFA0;" parent="8XgaqsMMWeKaeEVlrfNf-1" vertex="1">
          <mxGeometry x="597" y="459" width="127" height="78" as="geometry" />
        </mxCell>
        <mxCell id="8XgaqsMMWeKaeEVlrfNf-45" value="" style="edgeStyle=none;rounded=0;orthogonalLoop=1;jettySize=auto;html=1;startArrow=none;startFill=0;endArrow=classic;endFill=1;targetPerimeterSpacing=0;strokeWidth=2;fontColor=#000000;" parent="8XgaqsMMWeKaeEVlrfNf-1" target="8XgaqsMMWeKaeEVlrfNf-49" edge="1">
          <mxGeometry relative="1" as="geometry">
            <mxPoint x="68.75" y="488" as="sourcePoint" />
          </mxGeometry>
        </mxCell>
        <mxCell id="8XgaqsMMWeKaeEVlrfNf-46" value="" style="edgeStyle=segmentEdgeStyle;endArrow=classic;html=1;strokeWidth=2;fontColor=#000000;exitX=0;exitY=0.5;exitDx=0;exitDy=0;rounded=0;entryX=0.5;entryY=0;entryDx=0;entryDy=0;" parent="8XgaqsMMWeKaeEVlrfNf-1" source="8XgaqsMMWeKaeEVlrfNf-6" target="8XgaqsMMWeKaeEVlrfNf-2" edge="1">
          <mxGeometry width="50" height="50" relative="1" as="geometry">
            <mxPoint x="84.5" y="114" as="sourcePoint" />
            <mxPoint x="68" y="385" as="targetPoint" />
          </mxGeometry>
        </mxCell>
        <mxCell id="8XgaqsMMWeKaeEVlrfNf-47" value="" style="edgeStyle=none;rounded=0;orthogonalLoop=1;jettySize=auto;html=1;startArrow=none;startFill=0;endArrow=classic;endFill=1;targetPerimeterSpacing=0;strokeWidth=2;fontColor=#000000;" parent="8XgaqsMMWeKaeEVlrfNf-1" source="8XgaqsMMWeKaeEVlrfNf-49" target="8XgaqsMMWeKaeEVlrfNf-51" edge="1">
          <mxGeometry relative="1" as="geometry" />
        </mxCell>
        <mxCell id="8XgaqsMMWeKaeEVlrfNf-48" style="edgeStyle=none;rounded=0;orthogonalLoop=1;jettySize=auto;html=1;exitX=1;exitY=1;exitDx=0;exitDy=0;entryX=0;entryY=0;entryDx=0;entryDy=0;strokeWidth=2;" parent="8XgaqsMMWeKaeEVlrfNf-1" source="8XgaqsMMWeKaeEVlrfNf-49" target="8XgaqsMMWeKaeEVlrfNf-56" edge="1">
          <mxGeometry relative="1" as="geometry" />
        </mxCell>
        <mxCell id="8XgaqsMMWeKaeEVlrfNf-49" value="&lt;font style=&quot;font-size: 15px&quot;&gt;Allow&lt;br&gt;Duplicates&lt;/font&gt;" style="rhombus;whiteSpace=wrap;html=1;fontFamily=Helvetica;fontSize=12;fontColor=#000000;align=center;strokeColor=#000000;strokeWidth=2;fillColor=#FFFFA0;" parent="8XgaqsMMWeKaeEVlrfNf-1" vertex="1">
          <mxGeometry x="5" y="676" width="127.5" height="78" as="geometry" />
        </mxCell>
        <mxCell id="8XgaqsMMWeKaeEVlrfNf-50" value="" style="edgeStyle=none;rounded=0;orthogonalLoop=1;jettySize=auto;html=1;strokeWidth=2;" parent="8XgaqsMMWeKaeEVlrfNf-1" source="8XgaqsMMWeKaeEVlrfNf-51" target="8XgaqsMMWeKaeEVlrfNf-52" edge="1">
          <mxGeometry relative="1" as="geometry" />
        </mxCell>
        <mxCell id="8XgaqsMMWeKaeEVlrfNf-51" value="&lt;span style=&quot;font-size: 15px&quot;&gt;Separate&lt;br&gt;Key/Value&lt;/span&gt;" style="rhombus;whiteSpace=wrap;html=1;fontFamily=Helvetica;fontSize=12;fontColor=#000000;align=center;strokeColor=#000000;strokeWidth=2;fillColor=#FFFFA0;" parent="8XgaqsMMWeKaeEVlrfNf-1" vertex="1">
          <mxGeometry x="5" y="795" width="127.5" height="78" as="geometry" />
        </mxCell>
        <mxCell id="8XgaqsMMWeKaeEVlrfNf-52" value="&lt;font color=&quot;#000000&quot; style=&quot;font-size: 18px&quot;&gt;unordered_map&lt;/font&gt;" style="whiteSpace=wrap;html=1;strokeWidth=2;fillColor=#D5EFFF;rounded=0;fontColor=#F700FF;fontSize=15;" parent="8XgaqsMMWeKaeEVlrfNf-1" vertex="1">
          <mxGeometry x="1" y="923" width="133" height="40" as="geometry" />
        </mxCell>
        <mxCell id="8XgaqsMMWeKaeEVlrfNf-53" value="&lt;font color=&quot;#000000&quot; style=&quot;font-size: 18px&quot;&gt;unordered_set&lt;/font&gt;" style="whiteSpace=wrap;html=1;strokeWidth=2;fillColor=#D5EFFF;rounded=0;fontColor=#F700FF;fontSize=15;" parent="8XgaqsMMWeKaeEVlrfNf-1" vertex="1">
          <mxGeometry x="116" y="874" width="124" height="40" as="geometry" />
        </mxCell>
        <mxCell id="8XgaqsMMWeKaeEVlrfNf-54" value="" style="edgeStyle=segmentEdgeStyle;endArrow=classic;html=1;strokeWidth=2;exitX=1;exitY=0.5;exitDx=0;exitDy=0;rounded=0;entryX=0.5;entryY=0;entryDx=0;entryDy=0;" parent="8XgaqsMMWeKaeEVlrfNf-1" source="8XgaqsMMWeKaeEVlrfNf-51" target="8XgaqsMMWeKaeEVlrfNf-53" edge="1">
          <mxGeometry width="50" height="50" relative="1" as="geometry">
            <mxPoint x="202" y="800" as="sourcePoint" />
            <mxPoint x="177" y="864" as="targetPoint" />
          </mxGeometry>
        </mxCell>
        <mxCell id="8XgaqsMMWeKaeEVlrfNf-55" style="edgeStyle=none;rounded=0;orthogonalLoop=1;jettySize=auto;html=1;exitX=0.5;exitY=1;exitDx=0;exitDy=0;entryX=0.5;entryY=0;entryDx=0;entryDy=0;strokeWidth=2;" parent="8XgaqsMMWeKaeEVlrfNf-1" source="8XgaqsMMWeKaeEVlrfNf-56" target="8XgaqsMMWeKaeEVlrfNf-57" edge="1">
          <mxGeometry relative="1" as="geometry" />
        </mxCell>
        <mxCell id="8XgaqsMMWeKaeEVlrfNf-56" value="&lt;span style=&quot;font-size: 15px&quot;&gt;Separate Key/Value&lt;/span&gt;" style="rhombus;whiteSpace=wrap;html=1;fontFamily=Helvetica;fontSize=12;fontColor=#000000;align=center;strokeColor=#000000;strokeWidth=2;fillColor=#FFFFA0;" parent="8XgaqsMMWeKaeEVlrfNf-1" vertex="1">
          <mxGeometry x="246" y="794" width="127.5" height="78" as="geometry" />
        </mxCell>
        <mxCell id="8XgaqsMMWeKaeEVlrfNf-57" value="&lt;font color=&quot;#000000&quot; style=&quot;font-size: 18px&quot;&gt;unordered_multimap&lt;/font&gt;" style="whiteSpace=wrap;html=1;strokeWidth=2;fillColor=#D5EFFF;rounded=0;fontColor=#F700FF;fontSize=15;" parent="8XgaqsMMWeKaeEVlrfNf-1" vertex="1">
          <mxGeometry x="218" y="923" width="182" height="40" as="geometry" />
        </mxCell>
        <mxCell id="8XgaqsMMWeKaeEVlrfNf-58" value="&lt;font color=&quot;#000000&quot; style=&quot;font-size: 18px&quot;&gt;unordered_multiset&lt;/font&gt;" style="whiteSpace=wrap;html=1;strokeWidth=2;fillColor=#D5EFFF;rounded=0;fontColor=#F700FF;fontSize=15;" parent="8XgaqsMMWeKaeEVlrfNf-1" vertex="1">
          <mxGeometry x="375" y="874" width="177" height="40" as="geometry" />
        </mxCell>
        <mxCell id="8XgaqsMMWeKaeEVlrfNf-59" value="" style="edgeStyle=segmentEdgeStyle;endArrow=classic;html=1;strokeWidth=2;exitX=1;exitY=0.5;exitDx=0;exitDy=0;rounded=0;entryX=0.5;entryY=0;entryDx=0;entryDy=0;" parent="8XgaqsMMWeKaeEVlrfNf-1" source="8XgaqsMMWeKaeEVlrfNf-56" target="8XgaqsMMWeKaeEVlrfNf-58" edge="1">
          <mxGeometry width="50" height="50" relative="1" as="geometry">
            <mxPoint x="503" y="802" as="sourcePoint" />
            <mxPoint x="463" y="860" as="targetPoint" />
          </mxGeometry>
        </mxCell>
        <mxCell id="8XgaqsMMWeKaeEVlrfNf-60" value="" style="edgeStyle=none;rounded=0;jumpStyle=arc;orthogonalLoop=1;jettySize=auto;html=1;startArrow=none;startFill=0;endArrow=classic;endFill=1;targetPerimeterSpacing=0;strokeColor=#000000;strokeWidth=2;fontColor=#000000;entryX=0.5;entryY=0;entryDx=0;entryDy=0;jumpSize=12;" parent="8XgaqsMMWeKaeEVlrfNf-1" source="8XgaqsMMWeKaeEVlrfNf-61" target="8XgaqsMMWeKaeEVlrfNf-70" edge="1">
          <mxGeometry relative="1" as="geometry">
            <mxPoint x="500.5" y="780" as="targetPoint" />
          </mxGeometry>
        </mxCell>
        <mxCell id="8XgaqsMMWeKaeEVlrfNf-61" value="&lt;font style=&quot;font-size: 15px&quot;&gt;Insert/Erase&lt;br&gt;at front&lt;/font&gt;" style="rhombus;whiteSpace=wrap;html=1;fontFamily=Helvetica;fontSize=12;fontColor=#000000;align=center;strokeColor=#000000;strokeWidth=2;fillColor=#FFFFA0;" parent="8XgaqsMMWeKaeEVlrfNf-1" vertex="1">
          <mxGeometry x="437" y="409" width="127" height="78" as="geometry" />
        </mxCell>
        <mxCell id="8XgaqsMMWeKaeEVlrfNf-62" value="" style="edgeStyle=segmentEdgeStyle;endArrow=classic;html=1;strokeWidth=2;fontColor=#000000;exitX=0;exitY=0.5;exitDx=0;exitDy=0;entryX=0.5;entryY=0;entryDx=0;entryDy=0;rounded=1;arcSize=10;" parent="8XgaqsMMWeKaeEVlrfNf-1" source="8XgaqsMMWeKaeEVlrfNf-42" target="8XgaqsMMWeKaeEVlrfNf-61" edge="1">
          <mxGeometry width="50" height="50" relative="1" as="geometry">
            <mxPoint x="348" y="394" as="sourcePoint" />
            <mxPoint x="500" y="400" as="targetPoint" />
          </mxGeometry>
        </mxCell>
        <mxCell id="8XgaqsMMWeKaeEVlrfNf-63" value="" style="edgeStyle=orthogonalEdgeStyle;rounded=0;jumpStyle=sharp;orthogonalLoop=1;jettySize=auto;html=1;startArrow=none;startFill=0;endArrow=none;endFill=0;targetPerimeterSpacing=0;strokeColor=#000000;strokeWidth=2;fontColor=#000000;" parent="8XgaqsMMWeKaeEVlrfNf-1" source="8XgaqsMMWeKaeEVlrfNf-64" target="8XgaqsMMWeKaeEVlrfNf-68" edge="1">
          <mxGeometry relative="1" as="geometry" />
        </mxCell>
        <mxCell id="8XgaqsMMWeKaeEVlrfNf-64" value="&lt;span style=&quot;font-size: 15px&quot;&gt;Persistent Positions&lt;/span&gt;" style="rhombus;whiteSpace=wrap;html=1;fontFamily=Helvetica;fontSize=12;fontColor=#000000;align=center;strokeColor=#000000;strokeWidth=2;fillColor=#FFFFA0;" parent="8XgaqsMMWeKaeEVlrfNf-1" vertex="1">
          <mxGeometry x="310" y="479" width="127" height="78" as="geometry" />
        </mxCell>
        <mxCell id="8XgaqsMMWeKaeEVlrfNf-65" value="" style="edgeStyle=segmentEdgeStyle;endArrow=classic;html=1;strokeColor=#000000;strokeWidth=2;fontColor=#000000;exitX=1;exitY=0.5;exitDx=0;exitDy=0;rounded=0;entryX=0.5;entryY=0;entryDx=0;entryDy=0;" parent="8XgaqsMMWeKaeEVlrfNf-1" source="8XgaqsMMWeKaeEVlrfNf-2" target="8XgaqsMMWeKaeEVlrfNf-64" edge="1">
          <mxGeometry width="50" height="50" relative="1" as="geometry">
            <mxPoint x="226" y="447" as="sourcePoint" />
            <mxPoint x="374" y="470" as="targetPoint" />
          </mxGeometry>
        </mxCell>
        <mxCell id="8XgaqsMMWeKaeEVlrfNf-66" value="" style="edgeStyle=segmentEdgeStyle;endArrow=classic;html=1;strokeColor=#000000;strokeWidth=2;fontColor=#000000;exitX=0;exitY=0.5;exitDx=0;exitDy=0;rounded=0;entryX=0.5;entryY=0;entryDx=0;entryDy=0;" parent="8XgaqsMMWeKaeEVlrfNf-1" source="8XgaqsMMWeKaeEVlrfNf-61" target="8XgaqsMMWeKaeEVlrfNf-64" edge="1">
          <mxGeometry width="50" height="50" relative="1" as="geometry">
            <mxPoint x="306" y="392" as="sourcePoint" />
            <mxPoint x="373" y="470" as="targetPoint" />
          </mxGeometry>
        </mxCell>
        <mxCell id="8XgaqsMMWeKaeEVlrfNf-67" value="" style="edgeStyle=none;rounded=0;jumpStyle=sharp;orthogonalLoop=1;jettySize=auto;html=1;startArrow=none;startFill=0;endArrow=classic;endFill=1;targetPerimeterSpacing=0;strokeColor=#000000;strokeWidth=2;fontColor=#000000;" parent="8XgaqsMMWeKaeEVlrfNf-1" source="8XgaqsMMWeKaeEVlrfNf-68" target="8XgaqsMMWeKaeEVlrfNf-69" edge="1">
          <mxGeometry relative="1" as="geometry" />
        </mxCell>
        <mxCell id="8XgaqsMMWeKaeEVlrfNf-68" value="&lt;span style=&quot;font-size: 15px&quot;&gt;Size varies&lt;br&gt;Widely&lt;/span&gt;" style="rhombus;whiteSpace=wrap;html=1;fontFamily=Helvetica;fontSize=12;fontColor=#000000;align=center;strokeColor=#000000;strokeWidth=2;fillColor=#FFFFA0;" parent="8XgaqsMMWeKaeEVlrfNf-1" vertex="1">
          <mxGeometry x="310" y="615" width="127" height="78" as="geometry" />
        </mxCell>
        <mxCell id="8XgaqsMMWeKaeEVlrfNf-69" value="&lt;font color=&quot;#000000&quot; style=&quot;font-size: 18px&quot;&gt;vector&lt;/font&gt;" style="whiteSpace=wrap;html=1;strokeWidth=2;fillColor=#D5EFFF;rounded=0;fontColor=#F700FF;fontSize=15;" parent="8XgaqsMMWeKaeEVlrfNf-1" vertex="1">
          <mxGeometry x="324" y="730" width="96" height="40" as="geometry" />
        </mxCell>
        <mxCell id="8XgaqsMMWeKaeEVlrfNf-70" value="&lt;font color=&quot;#000000&quot; style=&quot;font-size: 18px&quot;&gt;deque&lt;/font&gt;" style="whiteSpace=wrap;html=1;strokeWidth=2;fillColor=#D5EFFF;rounded=0;fontColor=#F700FF;fontSize=15;" parent="8XgaqsMMWeKaeEVlrfNf-1" vertex="1">
          <mxGeometry x="453" y="730" width="96" height="40" as="geometry" />
        </mxCell>
        <mxCell id="8XgaqsMMWeKaeEVlrfNf-71" value="&lt;font color=&quot;#000000&quot; style=&quot;font-size: 18px&quot;&gt;list&lt;/font&gt;" style="whiteSpace=wrap;html=1;strokeWidth=2;fillColor=#D5EFFF;rounded=0;fontColor=#F700FF;fontSize=15;" parent="8XgaqsMMWeKaeEVlrfNf-1" vertex="1">
          <mxGeometry x="518" y="635" width="96" height="40" as="geometry" />
        </mxCell>
        <mxCell id="8XgaqsMMWeKaeEVlrfNf-72" value="" style="edgeStyle=segmentEdgeStyle;endArrow=classic;html=1;strokeColor=#000000;strokeWidth=2;fontColor=#000000;exitX=0.5;exitY=1;exitDx=0;exitDy=0;endFill=1;jumpStyle=arc;jumpSize=12;rounded=1;entryX=0.5;entryY=0;entryDx=0;entryDy=0;endSize=6;arcSize=10;" parent="8XgaqsMMWeKaeEVlrfNf-1" source="8XgaqsMMWeKaeEVlrfNf-44" target="8XgaqsMMWeKaeEVlrfNf-68" edge="1">
          <mxGeometry width="50" height="50" relative="1" as="geometry">
            <mxPoint x="623" y="632" as="sourcePoint" />
            <mxPoint x="374" y="589" as="targetPoint" />
            <Array as="points">
              <mxPoint x="661" y="592" />
              <mxPoint x="374" y="592" />
            </Array>
          </mxGeometry>
        </mxCell>
        <mxCell id="8XgaqsMMWeKaeEVlrfNf-73" value="" style="edgeStyle=segmentEdgeStyle;endArrow=classic;html=1;strokeColor=#000000;strokeWidth=2;fontColor=#000000;exitX=1;exitY=0.5;exitDx=0;exitDy=0;entryX=0.5;entryY=0;entryDx=0;entryDy=0;rounded=0;" parent="8XgaqsMMWeKaeEVlrfNf-1" source="8XgaqsMMWeKaeEVlrfNf-68" target="8XgaqsMMWeKaeEVlrfNf-70" edge="1">
          <mxGeometry width="50" height="50" relative="1" as="geometry">
            <mxPoint x="436" y="685" as="sourcePoint" />
            <mxPoint x="486" y="635" as="targetPoint" />
          </mxGeometry>
        </mxCell>
        <mxCell id="8XgaqsMMWeKaeEVlrfNf-74" style="edgeStyle=orthogonalEdgeStyle;rounded=0;jumpStyle=arc;jumpSize=12;orthogonalLoop=1;jettySize=auto;html=1;entryX=1;entryY=0.5;entryDx=0;entryDy=0;startArrow=none;startFill=0;endArrow=none;endFill=0;targetPerimeterSpacing=0;strokeColor=#000000;strokeWidth=2;fontColor=#000000;" parent="8XgaqsMMWeKaeEVlrfNf-1" source="8XgaqsMMWeKaeEVlrfNf-44" target="8XgaqsMMWeKaeEVlrfNf-64" edge="1">
          <mxGeometry relative="1" as="geometry">
            <Array as="points">
              <mxPoint x="566" y="498" />
              <mxPoint x="566" y="518" />
            </Array>
          </mxGeometry>
        </mxCell>
        <mxCell id="8XgaqsMMWeKaeEVlrfNf-75" value="&lt;font style=&quot;font-size: 15px&quot;&gt;no&lt;/font&gt;" style="text;html=1;strokeColor=none;fillColor=none;align=center;verticalAlign=middle;whiteSpace=wrap;rounded=0;labelBackgroundColor=none;fontColor=#000000;" parent="8XgaqsMMWeKaeEVlrfNf-1" vertex="1">
          <mxGeometry x="54" y="92" width="40" height="20" as="geometry" />
        </mxCell>
        <mxCell id="8XgaqsMMWeKaeEVlrfNf-76" value="&lt;font style=&quot;font-size: 15px&quot;&gt;yes&lt;/font&gt;" style="text;html=1;strokeColor=none;fillColor=none;align=center;verticalAlign=middle;whiteSpace=wrap;rounded=0;labelBackgroundColor=none;fontColor=#000000;" parent="8XgaqsMMWeKaeEVlrfNf-1" vertex="1">
          <mxGeometry x="146" y="154" width="40" height="20" as="geometry" />
        </mxCell>
        <mxCell id="8XgaqsMMWeKaeEVlrfNf-77" value="&lt;font style=&quot;font-size: 15px&quot;&gt;no&lt;/font&gt;" style="text;html=1;strokeColor=none;fillColor=none;align=center;verticalAlign=middle;whiteSpace=wrap;rounded=0;labelBackgroundColor=none;fontColor=#000000;" parent="8XgaqsMMWeKaeEVlrfNf-1" vertex="1">
          <mxGeometry x="207" y="206" width="40" height="20" as="geometry" />
        </mxCell>
        <mxCell id="8XgaqsMMWeKaeEVlrfNf-78" value="&lt;font style=&quot;font-size: 15px&quot;&gt;no&lt;/font&gt;" style="text;html=1;strokeColor=none;fillColor=none;align=center;verticalAlign=middle;whiteSpace=wrap;rounded=0;labelBackgroundColor=none;fontColor=#000000;" parent="8XgaqsMMWeKaeEVlrfNf-1" vertex="1">
          <mxGeometry x="375" y="205" width="40" height="20" as="geometry" />
        </mxCell>
        <mxCell id="8XgaqsMMWeKaeEVlrfNf-79" value="&lt;font style=&quot;font-size: 15px&quot;&gt;no&lt;/font&gt;" style="text;html=1;strokeColor=none;fillColor=none;align=center;verticalAlign=middle;whiteSpace=wrap;rounded=0;labelBackgroundColor=none;fontColor=#000000;" parent="8XgaqsMMWeKaeEVlrfNf-1" vertex="1">
          <mxGeometry x="546" y="205" width="40" height="20" as="geometry" />
        </mxCell>
        <mxCell id="8XgaqsMMWeKaeEVlrfNf-80" value="&lt;font style=&quot;font-size: 15px&quot;&gt;yes&lt;/font&gt;" style="text;html=1;strokeColor=none;fillColor=none;align=center;verticalAlign=middle;whiteSpace=wrap;rounded=0;labelBackgroundColor=none;fontColor=#000000;" parent="8XgaqsMMWeKaeEVlrfNf-1" vertex="1">
          <mxGeometry x="728" y="204" width="40" height="20" as="geometry" />
        </mxCell>
        <mxCell id="8XgaqsMMWeKaeEVlrfNf-81" value="&lt;font style=&quot;font-size: 15px&quot;&gt;no&lt;/font&gt;" style="text;html=1;strokeColor=none;fillColor=none;align=center;verticalAlign=middle;whiteSpace=wrap;rounded=0;labelBackgroundColor=none;fontColor=#000000;" parent="8XgaqsMMWeKaeEVlrfNf-1" vertex="1">
          <mxGeometry x="653" y="270" width="40" height="20" as="geometry" />
        </mxCell>
        <mxCell id="8XgaqsMMWeKaeEVlrfNf-82" value="&lt;font style=&quot;font-size: 15px&quot;&gt;no&lt;/font&gt;" style="text;html=1;strokeColor=none;fillColor=none;align=center;verticalAlign=middle;whiteSpace=wrap;rounded=0;labelBackgroundColor=none;fontColor=#000000;" parent="8XgaqsMMWeKaeEVlrfNf-1" vertex="1">
          <mxGeometry x="564" y="363" width="40" height="20" as="geometry" />
        </mxCell>
        <mxCell id="8XgaqsMMWeKaeEVlrfNf-83" value="&lt;font style=&quot;font-size: 15px&quot;&gt;yes&lt;/font&gt;" style="text;html=1;strokeColor=none;fillColor=none;align=center;verticalAlign=middle;whiteSpace=wrap;rounded=0;labelBackgroundColor=none;fontColor=#000000;" parent="8XgaqsMMWeKaeEVlrfNf-1" vertex="1">
          <mxGeometry x="656" y="420" width="40" height="20" as="geometry" />
        </mxCell>
        <mxCell id="8XgaqsMMWeKaeEVlrfNf-84" value="&lt;font style=&quot;font-size: 15px&quot;&gt;yes&lt;/font&gt;" style="text;html=1;strokeColor=none;fillColor=none;align=center;verticalAlign=middle;whiteSpace=wrap;rounded=0;labelBackgroundColor=none;fontColor=#000000;" parent="8XgaqsMMWeKaeEVlrfNf-1" vertex="1">
          <mxGeometry x="497" y="486" width="40" height="20" as="geometry" />
        </mxCell>
        <mxCell id="8XgaqsMMWeKaeEVlrfNf-85" value="&lt;font style=&quot;font-size: 15px&quot;&gt;no&lt;/font&gt;" style="text;html=1;strokeColor=none;fillColor=none;align=center;verticalAlign=middle;whiteSpace=wrap;rounded=0;labelBackgroundColor=none;fontColor=#000000;" parent="8XgaqsMMWeKaeEVlrfNf-1" vertex="1">
          <mxGeometry x="564" y="477" width="40" height="20" as="geometry" />
        </mxCell>
        <mxCell id="8XgaqsMMWeKaeEVlrfNf-86" value="&lt;font style=&quot;font-size: 15px&quot;&gt;yes&lt;/font&gt;" style="text;html=1;strokeColor=none;fillColor=none;align=center;verticalAlign=middle;whiteSpace=wrap;rounded=0;labelBackgroundColor=none;fontColor=#000000;" parent="8XgaqsMMWeKaeEVlrfNf-1" vertex="1">
          <mxGeometry x="658" y="543" width="40" height="20" as="geometry" />
        </mxCell>
        <mxCell id="8XgaqsMMWeKaeEVlrfNf-87" value="&lt;font style=&quot;font-size: 15px&quot;&gt;yes&lt;/font&gt;" style="text;html=1;strokeColor=none;fillColor=none;align=center;verticalAlign=middle;whiteSpace=wrap;rounded=0;labelBackgroundColor=none;fontColor=#000000;" parent="8XgaqsMMWeKaeEVlrfNf-1" vertex="1">
          <mxGeometry x="448" y="496" width="40" height="20" as="geometry" />
        </mxCell>
        <mxCell id="8XgaqsMMWeKaeEVlrfNf-88" value="&lt;font style=&quot;font-size: 15px&quot;&gt;no&lt;/font&gt;" style="text;html=1;strokeColor=none;fillColor=none;align=center;verticalAlign=middle;whiteSpace=wrap;rounded=0;labelBackgroundColor=none;fontColor=#000000;" parent="8XgaqsMMWeKaeEVlrfNf-1" vertex="1">
          <mxGeometry x="401" y="427" width="40" height="20" as="geometry" />
        </mxCell>
        <mxCell id="8XgaqsMMWeKaeEVlrfNf-89" value="&lt;font style=&quot;font-size: 15px&quot;&gt;no&lt;/font&gt;" style="text;html=1;strokeColor=none;fillColor=none;align=center;verticalAlign=middle;whiteSpace=wrap;rounded=0;labelBackgroundColor=none;fontColor=#000000;" parent="8XgaqsMMWeKaeEVlrfNf-1" vertex="1">
          <mxGeometry x="813" y="759" width="40" height="20" as="geometry" />
        </mxCell>
        <mxCell id="8XgaqsMMWeKaeEVlrfNf-90" value="&lt;font style=&quot;font-size: 15px&quot;&gt;yes&lt;/font&gt;" style="text;html=1;strokeColor=none;fillColor=none;align=center;verticalAlign=middle;whiteSpace=wrap;rounded=0;labelBackgroundColor=none;fontColor=#000000;" parent="8XgaqsMMWeKaeEVlrfNf-1" vertex="1">
          <mxGeometry x="915" y="777" width="40" height="20" as="geometry" />
        </mxCell>
        <mxCell id="8XgaqsMMWeKaeEVlrfNf-91" value="&lt;font style=&quot;font-size: 15px&quot;&gt;yes&lt;/font&gt;" style="text;html=1;strokeColor=none;fillColor=none;align=center;verticalAlign=middle;whiteSpace=wrap;rounded=0;labelBackgroundColor=none;fontColor=#000000;" parent="8XgaqsMMWeKaeEVlrfNf-1" vertex="1">
          <mxGeometry x="822" y="872" width="40" height="20" as="geometry" />
        </mxCell>
        <mxCell id="8XgaqsMMWeKaeEVlrfNf-92" value="&lt;font style=&quot;font-size: 15px&quot;&gt;no&lt;/font&gt;" style="text;html=1;strokeColor=none;fillColor=none;align=center;verticalAlign=middle;whiteSpace=wrap;rounded=0;labelBackgroundColor=none;fontColor=#000000;" parent="8XgaqsMMWeKaeEVlrfNf-1" vertex="1">
          <mxGeometry x="911" y="885" width="40" height="20" as="geometry" />
        </mxCell>
        <mxCell id="8XgaqsMMWeKaeEVlrfNf-93" value="&lt;font style=&quot;font-size: 15px&quot;&gt;no&lt;/font&gt;" style="text;html=1;strokeColor=none;fillColor=none;align=center;verticalAlign=middle;whiteSpace=wrap;rounded=0;labelBackgroundColor=none;fontColor=#000000;" parent="8XgaqsMMWeKaeEVlrfNf-1" vertex="1">
          <mxGeometry x="709" y="885" width="40" height="20" as="geometry" />
        </mxCell>
        <mxCell id="8XgaqsMMWeKaeEVlrfNf-94" value="&lt;font style=&quot;font-size: 15px&quot;&gt;yes&lt;/font&gt;" style="text;html=1;strokeColor=none;fillColor=none;align=center;verticalAlign=middle;whiteSpace=wrap;rounded=0;labelBackgroundColor=none;fontColor=#000000;" parent="8XgaqsMMWeKaeEVlrfNf-1" vertex="1">
          <mxGeometry x="627" y="872" width="40" height="20" as="geometry" />
        </mxCell>
        <mxCell id="8XgaqsMMWeKaeEVlrfNf-95" value="&lt;font style=&quot;font-size: 15px&quot;&gt;yes&lt;/font&gt;" style="text;html=1;strokeColor=none;fillColor=none;align=center;verticalAlign=middle;whiteSpace=wrap;rounded=0;labelBackgroundColor=none;fontColor=#000000;" parent="8XgaqsMMWeKaeEVlrfNf-1" vertex="1">
          <mxGeometry x="440" y="631" width="40" height="20" as="geometry" />
        </mxCell>
        <mxCell id="8XgaqsMMWeKaeEVlrfNf-96" value="&lt;font style=&quot;font-size: 15px&quot;&gt;no&lt;/font&gt;" style="text;html=1;strokeColor=none;fillColor=none;align=center;verticalAlign=middle;whiteSpace=wrap;rounded=0;labelBackgroundColor=none;fontColor=#000000;" parent="8XgaqsMMWeKaeEVlrfNf-1" vertex="1">
          <mxGeometry x="369" y="562" width="40" height="20" as="geometry" />
        </mxCell>
        <mxCell id="8XgaqsMMWeKaeEVlrfNf-97" value="&lt;font style=&quot;font-size: 15px&quot;&gt;no&lt;/font&gt;" style="text;html=1;strokeColor=none;fillColor=none;align=center;verticalAlign=middle;whiteSpace=wrap;rounded=0;labelBackgroundColor=none;fontColor=#000000;" parent="8XgaqsMMWeKaeEVlrfNf-1" vertex="1">
          <mxGeometry x="129.25" y="428" width="40" height="20" as="geometry" />
        </mxCell>
        <mxCell id="8XgaqsMMWeKaeEVlrfNf-98" value="&lt;font style=&quot;font-size: 15px&quot;&gt;yes&lt;/font&gt;" style="text;html=1;strokeColor=none;fillColor=none;align=center;verticalAlign=middle;whiteSpace=wrap;rounded=0;labelBackgroundColor=none;fontColor=#000000;" parent="8XgaqsMMWeKaeEVlrfNf-1" vertex="1">
          <mxGeometry x="67" y="566" width="40" height="20" as="geometry" />
        </mxCell>
        <mxCell id="8XgaqsMMWeKaeEVlrfNf-99" value="&lt;font style=&quot;font-size: 15px&quot;&gt;yes&lt;/font&gt;" style="text;html=1;strokeColor=none;fillColor=none;align=center;verticalAlign=middle;whiteSpace=wrap;rounded=0;labelBackgroundColor=none;fontColor=#000000;" parent="8XgaqsMMWeKaeEVlrfNf-1" vertex="1">
          <mxGeometry x="120" y="720" width="40" height="20" as="geometry" />
        </mxCell>
        <mxCell id="8XgaqsMMWeKaeEVlrfNf-100" value="&lt;font style=&quot;font-size: 15px&quot;&gt;no&lt;/font&gt;" style="text;html=1;strokeColor=none;fillColor=none;align=center;verticalAlign=middle;whiteSpace=wrap;rounded=0;labelBackgroundColor=none;fontColor=#000000;" parent="8XgaqsMMWeKaeEVlrfNf-1" vertex="1">
          <mxGeometry x="64" y="759" width="40" height="20" as="geometry" />
        </mxCell>
        <mxCell id="8XgaqsMMWeKaeEVlrfNf-101" value="&lt;font style=&quot;font-size: 15px&quot;&gt;no&lt;/font&gt;" style="text;html=1;strokeColor=none;fillColor=none;align=center;verticalAlign=middle;whiteSpace=wrap;rounded=0;labelBackgroundColor=none;fontColor=#000000;" parent="8XgaqsMMWeKaeEVlrfNf-1" vertex="1">
          <mxGeometry x="130" y="813" width="40" height="20" as="geometry" />
        </mxCell>
        <mxCell id="8XgaqsMMWeKaeEVlrfNf-102" value="&lt;font style=&quot;font-size: 15px&quot;&gt;yes&lt;/font&gt;" style="text;html=1;strokeColor=none;fillColor=none;align=center;verticalAlign=middle;whiteSpace=wrap;rounded=0;labelBackgroundColor=none;fontColor=#000000;" parent="8XgaqsMMWeKaeEVlrfNf-1" vertex="1">
          <mxGeometry x="305" y="880" width="40" height="20" as="geometry" />
        </mxCell>
        <mxCell id="8XgaqsMMWeKaeEVlrfNf-103" value="&lt;font style=&quot;font-size: 15px&quot;&gt;yes&lt;/font&gt;" style="text;html=1;strokeColor=none;fillColor=none;align=center;verticalAlign=middle;whiteSpace=wrap;rounded=0;labelBackgroundColor=none;fontColor=#000000;" parent="8XgaqsMMWeKaeEVlrfNf-1" vertex="1">
          <mxGeometry x="64" y="880" width="40" height="20" as="geometry" />
        </mxCell>
        <mxCell id="8XgaqsMMWeKaeEVlrfNf-104" value="&lt;font style=&quot;font-size: 15px&quot;&gt;no&lt;/font&gt;" style="text;html=1;strokeColor=none;fillColor=none;align=center;verticalAlign=middle;whiteSpace=wrap;rounded=0;labelBackgroundColor=none;fontColor=#000000;" parent="8XgaqsMMWeKaeEVlrfNf-1" vertex="1">
          <mxGeometry x="381" y="812" width="40" height="20" as="geometry" />
        </mxCell>
        <mxCell id="8XgaqsMMWeKaeEVlrfNf-105" value="&lt;font style=&quot;font-size: 15px&quot;&gt;no&lt;/font&gt;" style="text;html=1;strokeColor=none;fillColor=none;align=center;verticalAlign=middle;whiteSpace=wrap;rounded=0;labelBackgroundColor=none;fontColor=#000000;" parent="8XgaqsMMWeKaeEVlrfNf-1" vertex="1">
          <mxGeometry x="366" y="698" width="40" height="20" as="geometry" />
        </mxCell>
        <mxCell id="8XgaqsMMWeKaeEVlrfNf-106" value="&lt;font style=&quot;font-size: 15px&quot;&gt;yes&lt;/font&gt;" style="text;html=1;strokeColor=none;fillColor=none;align=center;verticalAlign=middle;whiteSpace=wrap;rounded=0;labelBackgroundColor=none;fontColor=#000000;" parent="8XgaqsMMWeKaeEVlrfNf-1" vertex="1">
          <mxGeometry x="145" y="270" width="40" height="20" as="geometry" />
        </mxCell>
        <mxCell id="8XgaqsMMWeKaeEVlrfNf-107" value="&lt;font style=&quot;font-size: 15px&quot;&gt;yes&lt;/font&gt;" style="text;html=1;strokeColor=none;fillColor=none;align=center;verticalAlign=middle;whiteSpace=wrap;rounded=0;labelBackgroundColor=none;fontColor=#000000;" parent="8XgaqsMMWeKaeEVlrfNf-1" vertex="1">
          <mxGeometry x="312" y="270" width="40" height="20" as="geometry" />
        </mxCell>
        <mxCell id="8XgaqsMMWeKaeEVlrfNf-108" value="&lt;font style=&quot;font-size: 15px&quot;&gt;yes&lt;/font&gt;" style="text;html=1;strokeColor=none;fillColor=none;align=center;verticalAlign=middle;whiteSpace=wrap;rounded=0;labelBackgroundColor=none;fontColor=#000000;" parent="8XgaqsMMWeKaeEVlrfNf-1" vertex="1">
          <mxGeometry x="482" y="270" width="40" height="20" as="geometry" />
        </mxCell>
        <mxCell id="8XgaqsMMWeKaeEVlrfNf-43" style="edgeStyle=orthogonalEdgeStyle;rounded=0;jumpStyle=arc;orthogonalLoop=1;jettySize=auto;html=1;exitX=0;exitY=0.5;exitDx=0;exitDy=0;startArrow=none;startFill=0;endArrow=classic;endFill=1;targetPerimeterSpacing=0;strokeColor=#000000;strokeWidth=2;fontColor=#000000;jumpSize=12;arcSize=10;" parent="8XgaqsMMWeKaeEVlrfNf-1" source="8XgaqsMMWeKaeEVlrfNf-44" target="8XgaqsMMWeKaeEVlrfNf-71" edge="1">
          <mxGeometry relative="1" as="geometry">
            <mxPoint x="558" y="498" as="targetPoint" />
          </mxGeometry>
        </mxCell>
      </root>
    </mxGraphModel>
  </diagram>
  <diagram name="python" id="IKmA3LGaTvCch__BoKI3">
    <mxGraphModel dx="1408" dy="748" grid="1" gridSize="1" guides="1" tooltips="1" connect="1" arrows="1" fold="1" page="1" pageScale="1" pageWidth="1000" pageHeight="1000" math="0" shadow="1">
      <root>
        <mxCell id="YxBBm7fmbjpThuYFnLMb-0" />
        <mxCell id="YxBBm7fmbjpThuYFnLMb-1" parent="YxBBm7fmbjpThuYFnLMb-0" />
        <mxCell id="YxBBm7fmbjpThuYFnLMb-2" value="&lt;span style=&quot;font-size: 15px&quot;&gt;Look-up Keys&lt;/span&gt;" style="rhombus;whiteSpace=wrap;html=1;fontFamily=Helvetica;fontSize=12;fontColor=#000000;align=center;strokeColor=#000000;strokeWidth=2;fillColor=#FFFFA0;" parent="YxBBm7fmbjpThuYFnLMb-1" vertex="1">
          <mxGeometry x="5" y="409" width="127.5" height="78" as="geometry" />
        </mxCell>
        <mxCell id="YxBBm7fmbjpThuYFnLMb-3" value="" style="edgeStyle=orthogonalEdgeStyle;rounded=0;orthogonalLoop=1;jettySize=auto;html=1;fontColor=#F700FF;strokeWidth=2;" parent="YxBBm7fmbjpThuYFnLMb-1" source="YxBBm7fmbjpThuYFnLMb-4" target="YxBBm7fmbjpThuYFnLMb-6" edge="1">
          <mxGeometry relative="1" as="geometry" />
        </mxCell>
        <mxCell id="YxBBm7fmbjpThuYFnLMb-4" value="&lt;font style=&quot;font-size: 18px&quot; face=&quot;Helvetica&quot;&gt;Start&lt;/font&gt;" style="rounded=1;whiteSpace=wrap;html=1;fillColor=#E1DFCF;arcSize=60;labelBorderColor=none;strokeWidth=2;fontFamily=comic sans;fontSize=15;snapToPoint=0;" parent="YxBBm7fmbjpThuYFnLMb-1" vertex="1">
          <mxGeometry x="88" y="1" width="120" height="40" as="geometry" />
        </mxCell>
        <mxCell id="YxBBm7fmbjpThuYFnLMb-5" value="" style="edgeStyle=orthogonalEdgeStyle;rounded=0;orthogonalLoop=1;jettySize=auto;html=1;fontColor=#F700FF;strokeWidth=2;" parent="YxBBm7fmbjpThuYFnLMb-1" source="YxBBm7fmbjpThuYFnLMb-6" target="YxBBm7fmbjpThuYFnLMb-9" edge="1">
          <mxGeometry relative="1" as="geometry" />
        </mxCell>
        <mxCell id="YxBBm7fmbjpThuYFnLMb-6" value="&lt;font style=&quot;font-size: 15px&quot;&gt;Order is&lt;br&gt;Important&lt;/font&gt;" style="rhombus;whiteSpace=wrap;html=1;fontFamily=Helvetica;fontSize=12;fontColor=#000000;align=center;strokeColor=#000000;strokeWidth=2;fillColor=#FFFFA0;" parent="YxBBm7fmbjpThuYFnLMb-1" vertex="1">
          <mxGeometry x="84.5" y="75" width="127" height="78" as="geometry" />
        </mxCell>
        <mxCell id="YxBBm7fmbjpThuYFnLMb-7" value="" style="edgeStyle=orthogonalEdgeStyle;rounded=0;orthogonalLoop=1;jettySize=auto;html=1;fontColor=#F700FF;strokeWidth=2;" parent="YxBBm7fmbjpThuYFnLMb-1" source="YxBBm7fmbjpThuYFnLMb-9" target="YxBBm7fmbjpThuYFnLMb-12" edge="1">
          <mxGeometry relative="1" as="geometry" />
        </mxCell>
        <mxCell id="YxBBm7fmbjpThuYFnLMb-8" value="" style="edgeStyle=orthogonalEdgeStyle;rounded=0;orthogonalLoop=1;jettySize=auto;html=1;fontColor=#F700FF;strokeWidth=2;" parent="YxBBm7fmbjpThuYFnLMb-1" source="YxBBm7fmbjpThuYFnLMb-9" target="YxBBm7fmbjpThuYFnLMb-13" edge="1">
          <mxGeometry relative="1" as="geometry" />
        </mxCell>
        <mxCell id="YxBBm7fmbjpThuYFnLMb-9" value="&lt;font style=&quot;font-size: 15px&quot;&gt;Order is&lt;br&gt;Important&lt;/font&gt;" style="rhombus;whiteSpace=wrap;html=1;fontFamily=Helvetica;fontSize=12;fontColor=#000000;align=center;strokeColor=#000000;strokeWidth=2;fillColor=#FFFFA0;" parent="YxBBm7fmbjpThuYFnLMb-1" vertex="1">
          <mxGeometry x="84.5" y="188" width="127.5" height="78" as="geometry" />
        </mxCell>
        <mxCell id="YxBBm7fmbjpThuYFnLMb-10" value="" style="edgeStyle=orthogonalEdgeStyle;rounded=0;orthogonalLoop=1;jettySize=auto;html=1;strokeWidth=2;fontColor=#F700FF;" parent="YxBBm7fmbjpThuYFnLMb-1" source="YxBBm7fmbjpThuYFnLMb-12" target="YxBBm7fmbjpThuYFnLMb-14" edge="1">
          <mxGeometry relative="1" as="geometry" />
        </mxCell>
        <mxCell id="YxBBm7fmbjpThuYFnLMb-11" value="" style="edgeStyle=orthogonalEdgeStyle;rounded=0;orthogonalLoop=1;jettySize=auto;html=1;strokeWidth=2;fontColor=#F700FF;" parent="YxBBm7fmbjpThuYFnLMb-1" source="YxBBm7fmbjpThuYFnLMb-12" target="YxBBm7fmbjpThuYFnLMb-17" edge="1">
          <mxGeometry relative="1" as="geometry" />
        </mxCell>
        <mxCell id="YxBBm7fmbjpThuYFnLMb-12" value="&lt;font style=&quot;font-size: 15px&quot;&gt;First In,&lt;br&gt;First Out&lt;/font&gt;" style="rhombus;whiteSpace=wrap;html=1;fontFamily=Helvetica;fontSize=12;fontColor=#000000;align=center;strokeColor=#000000;strokeWidth=2;fillColor=#FFFFA0;" parent="YxBBm7fmbjpThuYFnLMb-1" vertex="1">
          <mxGeometry x="253" y="188" width="127" height="78" as="geometry" />
        </mxCell>
        <mxCell id="YxBBm7fmbjpThuYFnLMb-13" value="&lt;font style=&quot;font-size: 18px&quot; color=&quot;#000000&quot;&gt;stack&lt;/font&gt;" style="rounded=0;whiteSpace=wrap;html=1;labelBackgroundColor=none;strokeColor=#000000;strokeWidth=2;fontColor=#F700FF;fillColor=#D5EFFF;imageWidth=24;" parent="YxBBm7fmbjpThuYFnLMb-1" vertex="1">
          <mxGeometry x="98.25" y="308" width="100" height="40" as="geometry" />
        </mxCell>
        <mxCell id="YxBBm7fmbjpThuYFnLMb-14" value="&lt;font style=&quot;font-size: 18px&quot; color=&quot;#000000&quot;&gt;queue&lt;/font&gt;" style="rounded=0;whiteSpace=wrap;html=1;labelBackgroundColor=none;strokeColor=#000000;strokeWidth=2;fontColor=#F700FF;fillColor=#D5EFFF;imageWidth=24;" parent="YxBBm7fmbjpThuYFnLMb-1" vertex="1">
          <mxGeometry x="266.5" y="308" width="100" height="40" as="geometry" />
        </mxCell>
        <mxCell id="YxBBm7fmbjpThuYFnLMb-15" value="" style="edgeStyle=orthogonalEdgeStyle;rounded=0;orthogonalLoop=1;jettySize=auto;html=1;strokeWidth=2;fontColor=#F700FF;" parent="YxBBm7fmbjpThuYFnLMb-1" source="YxBBm7fmbjpThuYFnLMb-17" target="YxBBm7fmbjpThuYFnLMb-19" edge="1">
          <mxGeometry relative="1" as="geometry" />
        </mxCell>
        <mxCell id="YxBBm7fmbjpThuYFnLMb-16" value="" style="edgeStyle=none;rounded=0;orthogonalLoop=1;jettySize=auto;html=1;startArrow=none;startFill=0;targetPerimeterSpacing=0;strokeWidth=2;fontColor=#000000;" parent="YxBBm7fmbjpThuYFnLMb-1" source="YxBBm7fmbjpThuYFnLMb-17" target="YxBBm7fmbjpThuYFnLMb-21" edge="1">
          <mxGeometry relative="1" as="geometry" />
        </mxCell>
        <mxCell id="YxBBm7fmbjpThuYFnLMb-17" value="&lt;font style=&quot;font-size: 15px&quot;&gt;Best In,&lt;br&gt;First Out&lt;/font&gt;" style="rhombus;whiteSpace=wrap;html=1;fontFamily=Helvetica;fontSize=12;fontColor=#000000;align=center;strokeColor=#000000;strokeWidth=2;fillColor=#FFFFA0;" parent="YxBBm7fmbjpThuYFnLMb-1" vertex="1">
          <mxGeometry x="422" y="188" width="127" height="78" as="geometry" />
        </mxCell>
        <mxCell id="YxBBm7fmbjpThuYFnLMb-18" value="" style="edgeStyle=none;rounded=0;orthogonalLoop=1;jettySize=auto;html=1;startArrow=none;startFill=0;endArrow=classic;endFill=1;targetPerimeterSpacing=0;strokeWidth=2;fontColor=#000000;" parent="YxBBm7fmbjpThuYFnLMb-1" source="YxBBm7fmbjpThuYFnLMb-19" target="YxBBm7fmbjpThuYFnLMb-42" edge="1">
          <mxGeometry relative="1" as="geometry" />
        </mxCell>
        <mxCell id="YxBBm7fmbjpThuYFnLMb-19" value="&lt;font style=&quot;font-size: 15px&quot;&gt;Keep Sorted&lt;br&gt;Elements&lt;/font&gt;" style="rhombus;whiteSpace=wrap;html=1;fontFamily=Helvetica;fontSize=12;fontColor=#000000;align=center;strokeColor=#000000;strokeWidth=2;fillColor=#FFFFA0;" parent="YxBBm7fmbjpThuYFnLMb-1" vertex="1">
          <mxGeometry x="597" y="188" width="127" height="78" as="geometry" />
        </mxCell>
        <mxCell id="YxBBm7fmbjpThuYFnLMb-20" value="" style="edgeStyle=segmentEdgeStyle;endArrow=classic;html=1;strokeWidth=2;fontColor=#000000;exitX=1;exitY=0.5;exitDx=0;exitDy=0;rounded=0;entryX=0.5;entryY=0;entryDx=0;entryDy=0;" parent="YxBBm7fmbjpThuYFnLMb-1" source="YxBBm7fmbjpThuYFnLMb-19" target="YxBBm7fmbjpThuYFnLMb-22" edge="1">
          <mxGeometry width="50" height="50" relative="1" as="geometry">
            <mxPoint x="693" y="305" as="sourcePoint" />
            <mxPoint x="853" y="340" as="targetPoint" />
          </mxGeometry>
        </mxCell>
        <mxCell id="YxBBm7fmbjpThuYFnLMb-21" value="&lt;font style=&quot;font-size: 18px&quot; color=&quot;#000000&quot;&gt;priority_queue&lt;/font&gt;" style="rounded=0;whiteSpace=wrap;html=1;labelBackgroundColor=none;strokeColor=#000000;strokeWidth=2;fontColor=#F700FF;fillColor=#D5EFFF;imageWidth=24;" parent="YxBBm7fmbjpThuYFnLMb-1" vertex="1">
          <mxGeometry x="424" y="308" width="122" height="40" as="geometry" />
        </mxCell>
        <mxCell id="YxBBm7fmbjpThuYFnLMb-22" value="&lt;span style=&quot;font-size: 15px&quot;&gt;Main Purpose&lt;/span&gt;" style="rhombus;whiteSpace=wrap;html=1;fontFamily=Helvetica;fontSize=12;fontColor=#000000;align=center;strokeWidth=2;fillColor=#FFFFA0;" parent="YxBBm7fmbjpThuYFnLMb-1" vertex="1">
          <mxGeometry x="789" y="354" width="127" height="78" as="geometry" />
        </mxCell>
        <mxCell id="YxBBm7fmbjpThuYFnLMb-23" value="" style="edgeStyle=none;rounded=0;orthogonalLoop=1;jettySize=auto;html=1;startArrow=none;startFill=0;targetPerimeterSpacing=0;strokeWidth=2;fontColor=#000000;endArrow=classic;endFill=1;" parent="YxBBm7fmbjpThuYFnLMb-1" source="YxBBm7fmbjpThuYFnLMb-24" target="YxBBm7fmbjpThuYFnLMb-29" edge="1">
          <mxGeometry relative="1" as="geometry" />
        </mxCell>
        <mxCell id="YxBBm7fmbjpThuYFnLMb-24" value="&lt;span style=&quot;font-size: 15px&quot;&gt;Look-up Keys&lt;/span&gt;" style="rhombus;whiteSpace=wrap;html=1;fontFamily=Helvetica;fontSize=12;fontColor=#000000;align=center;strokeColor=#000000;strokeWidth=2;fillColor=#FFFFA0;" parent="YxBBm7fmbjpThuYFnLMb-1" vertex="1">
          <mxGeometry x="854" y="393" width="127" height="78" as="geometry" />
        </mxCell>
        <mxCell id="YxBBm7fmbjpThuYFnLMb-25" value="" style="edgeStyle=none;rounded=0;orthogonalLoop=1;jettySize=auto;html=1;startArrow=none;startFill=0;endArrow=classic;endFill=1;targetPerimeterSpacing=0;strokeWidth=2;fontColor=#000000;" parent="YxBBm7fmbjpThuYFnLMb-1" source="YxBBm7fmbjpThuYFnLMb-26" target="YxBBm7fmbjpThuYFnLMb-34" edge="1">
          <mxGeometry relative="1" as="geometry" />
        </mxCell>
        <mxCell id="YxBBm7fmbjpThuYFnLMb-26" value="&lt;span style=&quot;font-size: 15px&quot;&gt;In-order&lt;br&gt;Traversals&lt;br&gt;&lt;/span&gt;" style="rhombus;whiteSpace=wrap;html=1;fontFamily=Helvetica;fontSize=12;fontColor=#000000;align=center;strokeColor=#000000;strokeWidth=2;fillColor=#FFFFA0;" parent="YxBBm7fmbjpThuYFnLMb-1" vertex="1">
          <mxGeometry x="725" y="394" width="127" height="78" as="geometry" />
        </mxCell>
        <mxCell id="YxBBm7fmbjpThuYFnLMb-27" value="" style="edgeStyle=none;rounded=0;orthogonalLoop=1;jettySize=auto;html=1;startArrow=none;startFill=0;targetPerimeterSpacing=0;strokeWidth=2;fontColor=#000000;" parent="YxBBm7fmbjpThuYFnLMb-1" source="YxBBm7fmbjpThuYFnLMb-29" target="YxBBm7fmbjpThuYFnLMb-32" edge="1">
          <mxGeometry relative="1" as="geometry" />
        </mxCell>
        <mxCell id="YxBBm7fmbjpThuYFnLMb-28" style="edgeStyle=none;rounded=0;orthogonalLoop=1;jettySize=auto;html=1;exitX=0;exitY=1;exitDx=0;exitDy=0;entryX=1;entryY=0;entryDx=0;entryDy=0;startArrow=none;startFill=0;endArrow=classic;endFill=1;targetPerimeterSpacing=0;strokeWidth=2;fontColor=#000000;" parent="YxBBm7fmbjpThuYFnLMb-1" source="YxBBm7fmbjpThuYFnLMb-29" target="YxBBm7fmbjpThuYFnLMb-38" edge="1">
          <mxGeometry relative="1" as="geometry" />
        </mxCell>
        <mxCell id="YxBBm7fmbjpThuYFnLMb-29" value="&lt;span style=&quot;font-size: 15px&quot;&gt;Allow&lt;br&gt;Duplicates&lt;br&gt;&lt;/span&gt;" style="rhombus;whiteSpace=wrap;html=1;fontFamily=Helvetica;fontSize=12;fontColor=#000000;align=center;strokeColor=#000000;strokeWidth=2;fillColor=#FFFFA0;" parent="YxBBm7fmbjpThuYFnLMb-1" vertex="1">
          <mxGeometry x="854" y="699" width="127" height="78" as="geometry" />
        </mxCell>
        <mxCell id="YxBBm7fmbjpThuYFnLMb-30" value="" style="edgeStyle=none;rounded=0;orthogonalLoop=1;jettySize=auto;html=1;startArrow=none;startFill=0;targetPerimeterSpacing=0;strokeWidth=2;fontColor=#000000;" parent="YxBBm7fmbjpThuYFnLMb-1" source="YxBBm7fmbjpThuYFnLMb-32" target="YxBBm7fmbjpThuYFnLMb-33" edge="1">
          <mxGeometry relative="1" as="geometry" />
        </mxCell>
        <mxCell id="YxBBm7fmbjpThuYFnLMb-31" style="edgeStyle=none;rounded=0;orthogonalLoop=1;jettySize=auto;html=1;exitX=0;exitY=1;exitDx=0;exitDy=0;entryX=0.5;entryY=0;entryDx=0;entryDy=0;startArrow=none;startFill=0;endArrow=classic;endFill=1;targetPerimeterSpacing=0;strokeWidth=2;fontColor=#000000;" parent="YxBBm7fmbjpThuYFnLMb-1" source="YxBBm7fmbjpThuYFnLMb-32" target="YxBBm7fmbjpThuYFnLMb-35" edge="1">
          <mxGeometry relative="1" as="geometry" />
        </mxCell>
        <mxCell id="YxBBm7fmbjpThuYFnLMb-32" value="&lt;span style=&quot;font-size: 15px&quot;&gt;Separate&lt;/span&gt;&lt;br&gt;&lt;span style=&quot;font-size: 15px&quot;&gt;Key/Value&lt;/span&gt;" style="rhombus;whiteSpace=wrap;html=1;fontFamily=Helvetica;fontSize=12;fontColor=#000000;align=center;strokeColor=#000000;strokeWidth=2;fillColor=#FFFFA0;" parent="YxBBm7fmbjpThuYFnLMb-1" vertex="1">
          <mxGeometry x="854" y="810" width="127" height="78" as="geometry" />
        </mxCell>
        <mxCell id="YxBBm7fmbjpThuYFnLMb-33" value="&lt;font color=&quot;#000000&quot; style=&quot;font-size: 18px&quot;&gt;multiset&lt;/font&gt;" style="rounded=0;whiteSpace=wrap;html=1;fontFamily=Helvetica;fontSize=12;fontColor=#F700FF;align=center;strokeColor=#000000;strokeWidth=2;fillColor=#D5EFFF;" parent="YxBBm7fmbjpThuYFnLMb-1" vertex="1">
          <mxGeometry x="870" y="920" width="96" height="41" as="geometry" />
        </mxCell>
        <mxCell id="YxBBm7fmbjpThuYFnLMb-34" value="&lt;font color=&quot;#000000&quot;&gt;&lt;font style=&quot;font-size: 18px&quot;&gt;vector&lt;br&gt;(sorted)&lt;/font&gt;&lt;br&gt;&lt;/font&gt;" style="whiteSpace=wrap;html=1;strokeWidth=2;fillColor=#D5EFFF;rounded=0;fontColor=#F700FF;" parent="YxBBm7fmbjpThuYFnLMb-1" vertex="1">
          <mxGeometry x="740" y="635" width="97" height="41" as="geometry" />
        </mxCell>
        <mxCell id="YxBBm7fmbjpThuYFnLMb-35" value="&lt;font color=&quot;#000000&quot; style=&quot;font-size: 18px&quot;&gt;multimap&lt;/font&gt;" style="rounded=0;whiteSpace=wrap;html=1;fontFamily=Helvetica;fontSize=12;fontColor=#F700FF;align=center;strokeColor=#000000;strokeWidth=2;fillColor=#D5EFFF;" parent="YxBBm7fmbjpThuYFnLMb-1" vertex="1">
          <mxGeometry x="765" y="920" width="96" height="41" as="geometry" />
        </mxCell>
        <mxCell id="YxBBm7fmbjpThuYFnLMb-36" style="edgeStyle=none;rounded=0;orthogonalLoop=1;jettySize=auto;html=1;exitX=0;exitY=1;exitDx=0;exitDy=0;entryX=0.5;entryY=0;entryDx=0;entryDy=0;startArrow=none;startFill=0;endArrow=classic;endFill=1;targetPerimeterSpacing=0;strokeWidth=2;fontColor=#000000;" parent="YxBBm7fmbjpThuYFnLMb-1" source="YxBBm7fmbjpThuYFnLMb-38" target="YxBBm7fmbjpThuYFnLMb-40" edge="1">
          <mxGeometry relative="1" as="geometry" />
        </mxCell>
        <mxCell id="YxBBm7fmbjpThuYFnLMb-37" value="" style="edgeStyle=none;rounded=0;orthogonalLoop=1;jettySize=auto;html=1;startArrow=none;startFill=0;endArrow=classic;endFill=1;targetPerimeterSpacing=0;strokeWidth=2;fontColor=#000000;" parent="YxBBm7fmbjpThuYFnLMb-1" source="YxBBm7fmbjpThuYFnLMb-38" target="YxBBm7fmbjpThuYFnLMb-39" edge="1">
          <mxGeometry relative="1" as="geometry" />
        </mxCell>
        <mxCell id="YxBBm7fmbjpThuYFnLMb-38" value="&lt;span style=&quot;font-size: 15px&quot;&gt;Separate&lt;br&gt;Key/Value&lt;br&gt;&lt;/span&gt;" style="rhombus;whiteSpace=wrap;html=1;fontFamily=Helvetica;fontSize=12;fontColor=#000000;align=center;strokeColor=#000000;strokeWidth=2;fillColor=#FFFFA0;" parent="YxBBm7fmbjpThuYFnLMb-1" vertex="1">
          <mxGeometry x="654" y="810" width="127" height="78" as="geometry" />
        </mxCell>
        <mxCell id="YxBBm7fmbjpThuYFnLMb-39" value="&lt;font color=&quot;#000000&quot; style=&quot;font-size: 18px&quot;&gt;set&lt;/font&gt;" style="rounded=0;whiteSpace=wrap;html=1;fontFamily=Helvetica;fontSize=12;fontColor=#F700FF;align=center;strokeColor=#000000;strokeWidth=2;fillColor=#D5EFFF;" parent="YxBBm7fmbjpThuYFnLMb-1" vertex="1">
          <mxGeometry x="677" y="921" width="79" height="40" as="geometry" />
        </mxCell>
        <mxCell id="YxBBm7fmbjpThuYFnLMb-40" value="&lt;font color=&quot;#000000&quot; style=&quot;font-size: 18px&quot;&gt;map&lt;br&gt;&lt;/font&gt;" style="rounded=0;whiteSpace=wrap;html=1;fontFamily=Helvetica;fontSize=12;fontColor=#F700FF;align=center;strokeColor=#000000;strokeWidth=2;fillColor=#D5EFFF;" parent="YxBBm7fmbjpThuYFnLMb-1" vertex="1">
          <mxGeometry x="589" y="920" width="79" height="41" as="geometry" />
        </mxCell>
        <mxCell id="YxBBm7fmbjpThuYFnLMb-41" value="" style="edgeStyle=none;rounded=0;orthogonalLoop=1;jettySize=auto;html=1;startArrow=none;startFill=0;endArrow=classic;endFill=1;targetPerimeterSpacing=0;strokeWidth=2;fontColor=#000000;" parent="YxBBm7fmbjpThuYFnLMb-1" source="YxBBm7fmbjpThuYFnLMb-42" target="YxBBm7fmbjpThuYFnLMb-44" edge="1">
          <mxGeometry relative="1" as="geometry" />
        </mxCell>
        <mxCell id="YxBBm7fmbjpThuYFnLMb-42" value="&lt;font style=&quot;font-size: 15px&quot;&gt;Insert/Erase&lt;br&gt;at middle&lt;/font&gt;" style="rhombus;whiteSpace=wrap;html=1;fontFamily=Helvetica;fontSize=12;fontColor=#000000;align=center;strokeColor=#000000;strokeWidth=2;fillColor=#FFFFA0;" parent="YxBBm7fmbjpThuYFnLMb-1" vertex="1">
          <mxGeometry x="597" y="347" width="127" height="78" as="geometry" />
        </mxCell>
        <mxCell id="YxBBm7fmbjpThuYFnLMb-43" style="edgeStyle=orthogonalEdgeStyle;rounded=0;jumpStyle=sharp;orthogonalLoop=1;jettySize=auto;html=1;exitX=0;exitY=0.5;exitDx=0;exitDy=0;startArrow=none;startFill=0;endArrow=classic;endFill=1;targetPerimeterSpacing=0;strokeColor=#000000;strokeWidth=2;fontColor=#000000;" parent="YxBBm7fmbjpThuYFnLMb-1" source="YxBBm7fmbjpThuYFnLMb-44" target="YxBBm7fmbjpThuYFnLMb-71" edge="1">
          <mxGeometry relative="1" as="geometry">
            <mxPoint x="558" y="498" as="targetPoint" />
          </mxGeometry>
        </mxCell>
        <mxCell id="YxBBm7fmbjpThuYFnLMb-44" value="&lt;font style=&quot;font-size: 15px&quot;&gt;Frequent&lt;br&gt;Traversals&lt;/font&gt;" style="rhombus;whiteSpace=wrap;html=1;fontFamily=Helvetica;fontSize=12;fontColor=#000000;align=center;strokeColor=#000000;strokeWidth=2;fillColor=#FFFFA0;" parent="YxBBm7fmbjpThuYFnLMb-1" vertex="1">
          <mxGeometry x="597" y="459" width="127" height="78" as="geometry" />
        </mxCell>
        <mxCell id="YxBBm7fmbjpThuYFnLMb-45" value="" style="edgeStyle=none;rounded=0;orthogonalLoop=1;jettySize=auto;html=1;startArrow=none;startFill=0;endArrow=classic;endFill=1;targetPerimeterSpacing=0;strokeWidth=2;fontColor=#000000;" parent="YxBBm7fmbjpThuYFnLMb-1" target="YxBBm7fmbjpThuYFnLMb-49" edge="1">
          <mxGeometry relative="1" as="geometry">
            <mxPoint x="68.75" y="488" as="sourcePoint" />
          </mxGeometry>
        </mxCell>
        <mxCell id="YxBBm7fmbjpThuYFnLMb-46" value="" style="edgeStyle=segmentEdgeStyle;endArrow=classic;html=1;strokeWidth=2;fontColor=#000000;exitX=0;exitY=0.5;exitDx=0;exitDy=0;rounded=0;entryX=0.5;entryY=0;entryDx=0;entryDy=0;" parent="YxBBm7fmbjpThuYFnLMb-1" source="YxBBm7fmbjpThuYFnLMb-6" target="YxBBm7fmbjpThuYFnLMb-2" edge="1">
          <mxGeometry width="50" height="50" relative="1" as="geometry">
            <mxPoint x="84.5" y="114" as="sourcePoint" />
            <mxPoint x="68" y="385" as="targetPoint" />
          </mxGeometry>
        </mxCell>
        <mxCell id="YxBBm7fmbjpThuYFnLMb-47" value="" style="edgeStyle=none;rounded=0;orthogonalLoop=1;jettySize=auto;html=1;startArrow=none;startFill=0;endArrow=classic;endFill=1;targetPerimeterSpacing=0;strokeWidth=2;fontColor=#000000;" parent="YxBBm7fmbjpThuYFnLMb-1" source="YxBBm7fmbjpThuYFnLMb-49" target="YxBBm7fmbjpThuYFnLMb-51" edge="1">
          <mxGeometry relative="1" as="geometry" />
        </mxCell>
        <mxCell id="YxBBm7fmbjpThuYFnLMb-48" style="edgeStyle=none;rounded=0;orthogonalLoop=1;jettySize=auto;html=1;exitX=1;exitY=1;exitDx=0;exitDy=0;entryX=0;entryY=0;entryDx=0;entryDy=0;strokeWidth=2;" parent="YxBBm7fmbjpThuYFnLMb-1" source="YxBBm7fmbjpThuYFnLMb-49" target="YxBBm7fmbjpThuYFnLMb-56" edge="1">
          <mxGeometry relative="1" as="geometry" />
        </mxCell>
        <mxCell id="YxBBm7fmbjpThuYFnLMb-49" value="&lt;font style=&quot;font-size: 15px&quot;&gt;Allow&lt;br&gt;Duplicates&lt;/font&gt;" style="rhombus;whiteSpace=wrap;html=1;fontFamily=Helvetica;fontSize=12;fontColor=#000000;align=center;strokeColor=#000000;strokeWidth=2;fillColor=#FFFFA0;" parent="YxBBm7fmbjpThuYFnLMb-1" vertex="1">
          <mxGeometry x="5" y="676" width="127.5" height="78" as="geometry" />
        </mxCell>
        <mxCell id="YxBBm7fmbjpThuYFnLMb-50" value="" style="edgeStyle=none;rounded=0;orthogonalLoop=1;jettySize=auto;html=1;strokeWidth=2;" parent="YxBBm7fmbjpThuYFnLMb-1" source="YxBBm7fmbjpThuYFnLMb-51" target="YxBBm7fmbjpThuYFnLMb-52" edge="1">
          <mxGeometry relative="1" as="geometry" />
        </mxCell>
        <mxCell id="YxBBm7fmbjpThuYFnLMb-51" value="&lt;span style=&quot;font-size: 15px&quot;&gt;Separate&lt;br&gt;Key/Value&lt;/span&gt;" style="rhombus;whiteSpace=wrap;html=1;fontFamily=Helvetica;fontSize=12;fontColor=#000000;align=center;strokeColor=#000000;strokeWidth=2;fillColor=#FFFFA0;" parent="YxBBm7fmbjpThuYFnLMb-1" vertex="1">
          <mxGeometry x="5" y="795" width="127.5" height="78" as="geometry" />
        </mxCell>
        <mxCell id="YxBBm7fmbjpThuYFnLMb-52" value="&lt;font color=&quot;#000000&quot; style=&quot;font-size: 18px&quot;&gt;unordered_map&lt;/font&gt;" style="whiteSpace=wrap;html=1;strokeWidth=2;fillColor=#D5EFFF;rounded=0;fontColor=#F700FF;fontSize=15;" parent="YxBBm7fmbjpThuYFnLMb-1" vertex="1">
          <mxGeometry x="1" y="923" width="133" height="40" as="geometry" />
        </mxCell>
        <mxCell id="YxBBm7fmbjpThuYFnLMb-53" value="&lt;font color=&quot;#000000&quot; style=&quot;font-size: 18px&quot;&gt;unordered_set&lt;/font&gt;" style="whiteSpace=wrap;html=1;strokeWidth=2;fillColor=#D5EFFF;rounded=0;fontColor=#F700FF;fontSize=15;" parent="YxBBm7fmbjpThuYFnLMb-1" vertex="1">
          <mxGeometry x="116" y="874" width="124" height="40" as="geometry" />
        </mxCell>
        <mxCell id="YxBBm7fmbjpThuYFnLMb-54" value="" style="edgeStyle=segmentEdgeStyle;endArrow=classic;html=1;strokeWidth=2;exitX=1;exitY=0.5;exitDx=0;exitDy=0;rounded=0;entryX=0.5;entryY=0;entryDx=0;entryDy=0;" parent="YxBBm7fmbjpThuYFnLMb-1" source="YxBBm7fmbjpThuYFnLMb-51" target="YxBBm7fmbjpThuYFnLMb-53" edge="1">
          <mxGeometry width="50" height="50" relative="1" as="geometry">
            <mxPoint x="202" y="800" as="sourcePoint" />
            <mxPoint x="177" y="864" as="targetPoint" />
          </mxGeometry>
        </mxCell>
        <mxCell id="YxBBm7fmbjpThuYFnLMb-55" style="edgeStyle=none;rounded=0;orthogonalLoop=1;jettySize=auto;html=1;exitX=0.5;exitY=1;exitDx=0;exitDy=0;entryX=0.5;entryY=0;entryDx=0;entryDy=0;strokeWidth=2;" parent="YxBBm7fmbjpThuYFnLMb-1" source="YxBBm7fmbjpThuYFnLMb-56" target="YxBBm7fmbjpThuYFnLMb-57" edge="1">
          <mxGeometry relative="1" as="geometry" />
        </mxCell>
        <mxCell id="YxBBm7fmbjpThuYFnLMb-56" value="&lt;span style=&quot;font-size: 15px&quot;&gt;Separate Key/Value&lt;/span&gt;" style="rhombus;whiteSpace=wrap;html=1;fontFamily=Helvetica;fontSize=12;fontColor=#000000;align=center;strokeColor=#000000;strokeWidth=2;fillColor=#FFFFA0;" parent="YxBBm7fmbjpThuYFnLMb-1" vertex="1">
          <mxGeometry x="246" y="794" width="127.5" height="78" as="geometry" />
        </mxCell>
        <mxCell id="YxBBm7fmbjpThuYFnLMb-57" value="&lt;font color=&quot;#000000&quot; style=&quot;font-size: 18px&quot;&gt;unordered_multimap&lt;/font&gt;" style="whiteSpace=wrap;html=1;strokeWidth=2;fillColor=#D5EFFF;rounded=0;fontColor=#F700FF;fontSize=15;" parent="YxBBm7fmbjpThuYFnLMb-1" vertex="1">
          <mxGeometry x="218" y="923" width="182" height="40" as="geometry" />
        </mxCell>
        <mxCell id="YxBBm7fmbjpThuYFnLMb-58" value="&lt;font color=&quot;#000000&quot; style=&quot;font-size: 18px&quot;&gt;unordered_multiset&lt;/font&gt;" style="whiteSpace=wrap;html=1;strokeWidth=2;fillColor=#D5EFFF;rounded=0;fontColor=#F700FF;fontSize=15;" parent="YxBBm7fmbjpThuYFnLMb-1" vertex="1">
          <mxGeometry x="375" y="874" width="177" height="40" as="geometry" />
        </mxCell>
        <mxCell id="YxBBm7fmbjpThuYFnLMb-59" value="" style="edgeStyle=segmentEdgeStyle;endArrow=classic;html=1;strokeWidth=2;exitX=1;exitY=0.5;exitDx=0;exitDy=0;rounded=0;entryX=0.5;entryY=0;entryDx=0;entryDy=0;" parent="YxBBm7fmbjpThuYFnLMb-1" source="YxBBm7fmbjpThuYFnLMb-56" target="YxBBm7fmbjpThuYFnLMb-58" edge="1">
          <mxGeometry width="50" height="50" relative="1" as="geometry">
            <mxPoint x="503" y="802" as="sourcePoint" />
            <mxPoint x="463" y="860" as="targetPoint" />
          </mxGeometry>
        </mxCell>
        <mxCell id="YxBBm7fmbjpThuYFnLMb-60" value="" style="edgeStyle=none;rounded=0;jumpStyle=arc;orthogonalLoop=1;jettySize=auto;html=1;startArrow=none;startFill=0;endArrow=classic;endFill=1;targetPerimeterSpacing=0;strokeColor=#000000;strokeWidth=2;fontColor=#000000;entryX=0.5;entryY=0;entryDx=0;entryDy=0;jumpSize=12;" parent="YxBBm7fmbjpThuYFnLMb-1" source="YxBBm7fmbjpThuYFnLMb-61" target="YxBBm7fmbjpThuYFnLMb-70" edge="1">
          <mxGeometry relative="1" as="geometry">
            <mxPoint x="500.5" y="780" as="targetPoint" />
          </mxGeometry>
        </mxCell>
        <mxCell id="YxBBm7fmbjpThuYFnLMb-61" value="&lt;font style=&quot;font-size: 15px&quot;&gt;Insert/Erase&lt;br&gt;at front&lt;/font&gt;" style="rhombus;whiteSpace=wrap;html=1;fontFamily=Helvetica;fontSize=12;fontColor=#000000;align=center;strokeColor=#000000;strokeWidth=2;fillColor=#FFFFA0;" parent="YxBBm7fmbjpThuYFnLMb-1" vertex="1">
          <mxGeometry x="437" y="409" width="127" height="78" as="geometry" />
        </mxCell>
        <mxCell id="YxBBm7fmbjpThuYFnLMb-62" value="" style="edgeStyle=segmentEdgeStyle;endArrow=classic;html=1;strokeWidth=2;fontColor=#000000;exitX=0;exitY=0.5;exitDx=0;exitDy=0;entryX=0.5;entryY=0;entryDx=0;entryDy=0;" parent="YxBBm7fmbjpThuYFnLMb-1" source="YxBBm7fmbjpThuYFnLMb-42" target="YxBBm7fmbjpThuYFnLMb-61" edge="1">
          <mxGeometry width="50" height="50" relative="1" as="geometry">
            <mxPoint x="348" y="394" as="sourcePoint" />
            <mxPoint x="500" y="400" as="targetPoint" />
          </mxGeometry>
        </mxCell>
        <mxCell id="YxBBm7fmbjpThuYFnLMb-63" value="" style="edgeStyle=orthogonalEdgeStyle;rounded=0;jumpStyle=sharp;orthogonalLoop=1;jettySize=auto;html=1;startArrow=none;startFill=0;endArrow=none;endFill=0;targetPerimeterSpacing=0;strokeColor=#000000;strokeWidth=2;fontColor=#000000;" parent="YxBBm7fmbjpThuYFnLMb-1" source="YxBBm7fmbjpThuYFnLMb-64" target="YxBBm7fmbjpThuYFnLMb-68" edge="1">
          <mxGeometry relative="1" as="geometry" />
        </mxCell>
        <mxCell id="YxBBm7fmbjpThuYFnLMb-64" value="&lt;span style=&quot;font-size: 15px&quot;&gt;Persistent Positions&lt;/span&gt;" style="rhombus;whiteSpace=wrap;html=1;fontFamily=Helvetica;fontSize=12;fontColor=#000000;align=center;strokeColor=#000000;strokeWidth=2;fillColor=#FFFFA0;" parent="YxBBm7fmbjpThuYFnLMb-1" vertex="1">
          <mxGeometry x="310" y="479" width="127" height="78" as="geometry" />
        </mxCell>
        <mxCell id="YxBBm7fmbjpThuYFnLMb-65" value="" style="edgeStyle=segmentEdgeStyle;endArrow=classic;html=1;strokeColor=#000000;strokeWidth=2;fontColor=#000000;exitX=1;exitY=0.5;exitDx=0;exitDy=0;rounded=0;entryX=0.5;entryY=0;entryDx=0;entryDy=0;" parent="YxBBm7fmbjpThuYFnLMb-1" source="YxBBm7fmbjpThuYFnLMb-2" target="YxBBm7fmbjpThuYFnLMb-64" edge="1">
          <mxGeometry width="50" height="50" relative="1" as="geometry">
            <mxPoint x="226" y="447" as="sourcePoint" />
            <mxPoint x="374" y="470" as="targetPoint" />
          </mxGeometry>
        </mxCell>
        <mxCell id="YxBBm7fmbjpThuYFnLMb-66" value="" style="edgeStyle=segmentEdgeStyle;endArrow=classic;html=1;strokeColor=#000000;strokeWidth=2;fontColor=#000000;exitX=0;exitY=0.5;exitDx=0;exitDy=0;rounded=0;entryX=0.5;entryY=0;entryDx=0;entryDy=0;" parent="YxBBm7fmbjpThuYFnLMb-1" source="YxBBm7fmbjpThuYFnLMb-61" target="YxBBm7fmbjpThuYFnLMb-64" edge="1">
          <mxGeometry width="50" height="50" relative="1" as="geometry">
            <mxPoint x="306" y="392" as="sourcePoint" />
            <mxPoint x="373" y="470" as="targetPoint" />
          </mxGeometry>
        </mxCell>
        <mxCell id="YxBBm7fmbjpThuYFnLMb-67" value="" style="edgeStyle=none;rounded=0;jumpStyle=sharp;orthogonalLoop=1;jettySize=auto;html=1;startArrow=none;startFill=0;endArrow=none;endFill=0;targetPerimeterSpacing=0;strokeColor=#000000;strokeWidth=2;fontColor=#000000;" parent="YxBBm7fmbjpThuYFnLMb-1" source="YxBBm7fmbjpThuYFnLMb-68" target="YxBBm7fmbjpThuYFnLMb-69" edge="1">
          <mxGeometry relative="1" as="geometry" />
        </mxCell>
        <mxCell id="YxBBm7fmbjpThuYFnLMb-68" value="&lt;span style=&quot;font-size: 15px&quot;&gt;Size varies&lt;br&gt;Widely&lt;/span&gt;" style="rhombus;whiteSpace=wrap;html=1;fontFamily=Helvetica;fontSize=12;fontColor=#000000;align=center;strokeColor=#000000;strokeWidth=2;fillColor=#FFFFA0;" parent="YxBBm7fmbjpThuYFnLMb-1" vertex="1">
          <mxGeometry x="310" y="615" width="127" height="78" as="geometry" />
        </mxCell>
        <mxCell id="YxBBm7fmbjpThuYFnLMb-69" value="&lt;font color=&quot;#000000&quot; style=&quot;font-size: 18px&quot;&gt;vector&lt;/font&gt;" style="whiteSpace=wrap;html=1;strokeWidth=2;fillColor=#D5EFFF;rounded=0;fontColor=#F700FF;fontSize=15;" parent="YxBBm7fmbjpThuYFnLMb-1" vertex="1">
          <mxGeometry x="324" y="730" width="96" height="40" as="geometry" />
        </mxCell>
        <mxCell id="YxBBm7fmbjpThuYFnLMb-70" value="&lt;font color=&quot;#000000&quot; style=&quot;font-size: 18px&quot;&gt;deque&lt;/font&gt;" style="whiteSpace=wrap;html=1;strokeWidth=2;fillColor=#D5EFFF;rounded=0;fontColor=#F700FF;fontSize=15;" parent="YxBBm7fmbjpThuYFnLMb-1" vertex="1">
          <mxGeometry x="453" y="730" width="96" height="40" as="geometry" />
        </mxCell>
        <mxCell id="YxBBm7fmbjpThuYFnLMb-71" value="&lt;font color=&quot;#000000&quot; style=&quot;font-size: 18px&quot;&gt;list&lt;/font&gt;" style="whiteSpace=wrap;html=1;strokeWidth=2;fillColor=#D5EFFF;rounded=0;fontColor=#F700FF;fontSize=15;" parent="YxBBm7fmbjpThuYFnLMb-1" vertex="1">
          <mxGeometry x="518" y="635" width="96" height="40" as="geometry" />
        </mxCell>
        <mxCell id="YxBBm7fmbjpThuYFnLMb-72" value="" style="edgeStyle=segmentEdgeStyle;endArrow=classic;html=1;strokeColor=#000000;strokeWidth=2;fontColor=#000000;exitX=0.5;exitY=1;exitDx=0;exitDy=0;endFill=1;jumpStyle=arc;jumpSize=12;rounded=0;entryX=0.5;entryY=0;entryDx=0;entryDy=0;endSize=6;" parent="YxBBm7fmbjpThuYFnLMb-1" source="YxBBm7fmbjpThuYFnLMb-44" target="YxBBm7fmbjpThuYFnLMb-68" edge="1">
          <mxGeometry width="50" height="50" relative="1" as="geometry">
            <mxPoint x="623" y="632" as="sourcePoint" />
            <mxPoint x="374" y="589" as="targetPoint" />
            <Array as="points">
              <mxPoint x="661" y="592" />
              <mxPoint x="374" y="592" />
            </Array>
          </mxGeometry>
        </mxCell>
        <mxCell id="YxBBm7fmbjpThuYFnLMb-73" value="" style="edgeStyle=segmentEdgeStyle;endArrow=classic;html=1;strokeColor=#000000;strokeWidth=2;fontColor=#000000;exitX=1;exitY=0.5;exitDx=0;exitDy=0;entryX=0.5;entryY=0;entryDx=0;entryDy=0;rounded=0;" parent="YxBBm7fmbjpThuYFnLMb-1" source="YxBBm7fmbjpThuYFnLMb-68" target="YxBBm7fmbjpThuYFnLMb-70" edge="1">
          <mxGeometry width="50" height="50" relative="1" as="geometry">
            <mxPoint x="436" y="685" as="sourcePoint" />
            <mxPoint x="486" y="635" as="targetPoint" />
          </mxGeometry>
        </mxCell>
        <mxCell id="YxBBm7fmbjpThuYFnLMb-74" style="edgeStyle=orthogonalEdgeStyle;rounded=0;jumpStyle=arc;jumpSize=12;orthogonalLoop=1;jettySize=auto;html=1;entryX=1;entryY=0.5;entryDx=0;entryDy=0;startArrow=none;startFill=0;endArrow=classic;endFill=1;targetPerimeterSpacing=0;strokeColor=#000000;strokeWidth=2;fontColor=#000000;" parent="YxBBm7fmbjpThuYFnLMb-1" source="YxBBm7fmbjpThuYFnLMb-44" target="YxBBm7fmbjpThuYFnLMb-64" edge="1">
          <mxGeometry relative="1" as="geometry">
            <Array as="points">
              <mxPoint x="566" y="498" />
              <mxPoint x="566" y="518" />
            </Array>
          </mxGeometry>
        </mxCell>
        <mxCell id="YxBBm7fmbjpThuYFnLMb-75" value="&lt;font style=&quot;font-size: 15px&quot;&gt;no&lt;/font&gt;" style="text;html=1;strokeColor=none;fillColor=none;align=center;verticalAlign=middle;whiteSpace=wrap;rounded=0;labelBackgroundColor=none;fontColor=#000000;" parent="YxBBm7fmbjpThuYFnLMb-1" vertex="1">
          <mxGeometry x="54" y="92" width="40" height="20" as="geometry" />
        </mxCell>
        <mxCell id="YxBBm7fmbjpThuYFnLMb-76" value="&lt;font style=&quot;font-size: 15px&quot;&gt;yes&lt;/font&gt;" style="text;html=1;strokeColor=none;fillColor=none;align=center;verticalAlign=middle;whiteSpace=wrap;rounded=0;labelBackgroundColor=none;fontColor=#000000;" parent="YxBBm7fmbjpThuYFnLMb-1" vertex="1">
          <mxGeometry x="146" y="154" width="40" height="20" as="geometry" />
        </mxCell>
        <mxCell id="YxBBm7fmbjpThuYFnLMb-77" value="&lt;font style=&quot;font-size: 15px&quot;&gt;no&lt;/font&gt;" style="text;html=1;strokeColor=none;fillColor=none;align=center;verticalAlign=middle;whiteSpace=wrap;rounded=0;labelBackgroundColor=none;fontColor=#000000;" parent="YxBBm7fmbjpThuYFnLMb-1" vertex="1">
          <mxGeometry x="207" y="206" width="40" height="20" as="geometry" />
        </mxCell>
        <mxCell id="YxBBm7fmbjpThuYFnLMb-78" value="&lt;font style=&quot;font-size: 15px&quot;&gt;no&lt;/font&gt;" style="text;html=1;strokeColor=none;fillColor=none;align=center;verticalAlign=middle;whiteSpace=wrap;rounded=0;labelBackgroundColor=none;fontColor=#000000;" parent="YxBBm7fmbjpThuYFnLMb-1" vertex="1">
          <mxGeometry x="375" y="205" width="40" height="20" as="geometry" />
        </mxCell>
        <mxCell id="YxBBm7fmbjpThuYFnLMb-79" value="&lt;font style=&quot;font-size: 15px&quot;&gt;no&lt;/font&gt;" style="text;html=1;strokeColor=none;fillColor=none;align=center;verticalAlign=middle;whiteSpace=wrap;rounded=0;labelBackgroundColor=none;fontColor=#000000;" parent="YxBBm7fmbjpThuYFnLMb-1" vertex="1">
          <mxGeometry x="546" y="205" width="40" height="20" as="geometry" />
        </mxCell>
        <mxCell id="YxBBm7fmbjpThuYFnLMb-80" value="&lt;font style=&quot;font-size: 15px&quot;&gt;yes&lt;/font&gt;" style="text;html=1;strokeColor=none;fillColor=none;align=center;verticalAlign=middle;whiteSpace=wrap;rounded=0;labelBackgroundColor=none;fontColor=#000000;" parent="YxBBm7fmbjpThuYFnLMb-1" vertex="1">
          <mxGeometry x="728" y="204" width="40" height="20" as="geometry" />
        </mxCell>
        <mxCell id="YxBBm7fmbjpThuYFnLMb-81" value="&lt;font style=&quot;font-size: 15px&quot;&gt;no&lt;/font&gt;" style="text;html=1;strokeColor=none;fillColor=none;align=center;verticalAlign=middle;whiteSpace=wrap;rounded=0;labelBackgroundColor=none;fontColor=#000000;" parent="YxBBm7fmbjpThuYFnLMb-1" vertex="1">
          <mxGeometry x="653" y="270" width="40" height="20" as="geometry" />
        </mxCell>
        <mxCell id="YxBBm7fmbjpThuYFnLMb-82" value="&lt;font style=&quot;font-size: 15px&quot;&gt;no&lt;/font&gt;" style="text;html=1;strokeColor=none;fillColor=none;align=center;verticalAlign=middle;whiteSpace=wrap;rounded=0;labelBackgroundColor=none;fontColor=#000000;" parent="YxBBm7fmbjpThuYFnLMb-1" vertex="1">
          <mxGeometry x="564" y="363" width="40" height="20" as="geometry" />
        </mxCell>
        <mxCell id="YxBBm7fmbjpThuYFnLMb-83" value="&lt;font style=&quot;font-size: 15px&quot;&gt;yes&lt;/font&gt;" style="text;html=1;strokeColor=none;fillColor=none;align=center;verticalAlign=middle;whiteSpace=wrap;rounded=0;labelBackgroundColor=none;fontColor=#000000;" parent="YxBBm7fmbjpThuYFnLMb-1" vertex="1">
          <mxGeometry x="656" y="420" width="40" height="20" as="geometry" />
        </mxCell>
        <mxCell id="YxBBm7fmbjpThuYFnLMb-84" value="&lt;font style=&quot;font-size: 15px&quot;&gt;yes&lt;/font&gt;" style="text;html=1;strokeColor=none;fillColor=none;align=center;verticalAlign=middle;whiteSpace=wrap;rounded=0;labelBackgroundColor=none;fontColor=#000000;" parent="YxBBm7fmbjpThuYFnLMb-1" vertex="1">
          <mxGeometry x="497" y="486" width="40" height="20" as="geometry" />
        </mxCell>
        <mxCell id="YxBBm7fmbjpThuYFnLMb-85" value="&lt;font style=&quot;font-size: 15px&quot;&gt;no&lt;/font&gt;" style="text;html=1;strokeColor=none;fillColor=none;align=center;verticalAlign=middle;whiteSpace=wrap;rounded=0;labelBackgroundColor=none;fontColor=#000000;" parent="YxBBm7fmbjpThuYFnLMb-1" vertex="1">
          <mxGeometry x="564" y="477" width="40" height="20" as="geometry" />
        </mxCell>
        <mxCell id="YxBBm7fmbjpThuYFnLMb-86" value="&lt;font style=&quot;font-size: 15px&quot;&gt;yes&lt;/font&gt;" style="text;html=1;strokeColor=none;fillColor=none;align=center;verticalAlign=middle;whiteSpace=wrap;rounded=0;labelBackgroundColor=none;fontColor=#000000;" parent="YxBBm7fmbjpThuYFnLMb-1" vertex="1">
          <mxGeometry x="658" y="543" width="40" height="20" as="geometry" />
        </mxCell>
        <mxCell id="YxBBm7fmbjpThuYFnLMb-87" value="&lt;font style=&quot;font-size: 15px&quot;&gt;yes&lt;/font&gt;" style="text;html=1;strokeColor=none;fillColor=none;align=center;verticalAlign=middle;whiteSpace=wrap;rounded=0;labelBackgroundColor=none;fontColor=#000000;" parent="YxBBm7fmbjpThuYFnLMb-1" vertex="1">
          <mxGeometry x="448" y="496" width="40" height="20" as="geometry" />
        </mxCell>
        <mxCell id="YxBBm7fmbjpThuYFnLMb-88" value="&lt;font style=&quot;font-size: 15px&quot;&gt;no&lt;/font&gt;" style="text;html=1;strokeColor=none;fillColor=none;align=center;verticalAlign=middle;whiteSpace=wrap;rounded=0;labelBackgroundColor=none;fontColor=#000000;" parent="YxBBm7fmbjpThuYFnLMb-1" vertex="1">
          <mxGeometry x="401" y="427" width="40" height="20" as="geometry" />
        </mxCell>
        <mxCell id="YxBBm7fmbjpThuYFnLMb-89" value="&lt;font style=&quot;font-size: 15px&quot;&gt;no&lt;/font&gt;" style="text;html=1;strokeColor=none;fillColor=none;align=center;verticalAlign=middle;whiteSpace=wrap;rounded=0;labelBackgroundColor=none;fontColor=#000000;" parent="YxBBm7fmbjpThuYFnLMb-1" vertex="1">
          <mxGeometry x="813" y="759" width="40" height="20" as="geometry" />
        </mxCell>
        <mxCell id="YxBBm7fmbjpThuYFnLMb-90" value="&lt;font style=&quot;font-size: 15px&quot;&gt;yes&lt;/font&gt;" style="text;html=1;strokeColor=none;fillColor=none;align=center;verticalAlign=middle;whiteSpace=wrap;rounded=0;labelBackgroundColor=none;fontColor=#000000;" parent="YxBBm7fmbjpThuYFnLMb-1" vertex="1">
          <mxGeometry x="915" y="777" width="40" height="20" as="geometry" />
        </mxCell>
        <mxCell id="YxBBm7fmbjpThuYFnLMb-91" value="&lt;font style=&quot;font-size: 15px&quot;&gt;yes&lt;/font&gt;" style="text;html=1;strokeColor=none;fillColor=none;align=center;verticalAlign=middle;whiteSpace=wrap;rounded=0;labelBackgroundColor=none;fontColor=#000000;" parent="YxBBm7fmbjpThuYFnLMb-1" vertex="1">
          <mxGeometry x="822" y="872" width="40" height="20" as="geometry" />
        </mxCell>
        <mxCell id="YxBBm7fmbjpThuYFnLMb-92" value="&lt;font style=&quot;font-size: 15px&quot;&gt;no&lt;/font&gt;" style="text;html=1;strokeColor=none;fillColor=none;align=center;verticalAlign=middle;whiteSpace=wrap;rounded=0;labelBackgroundColor=none;fontColor=#000000;" parent="YxBBm7fmbjpThuYFnLMb-1" vertex="1">
          <mxGeometry x="911" y="885" width="40" height="20" as="geometry" />
        </mxCell>
        <mxCell id="YxBBm7fmbjpThuYFnLMb-93" value="&lt;font style=&quot;font-size: 15px&quot;&gt;no&lt;/font&gt;" style="text;html=1;strokeColor=none;fillColor=none;align=center;verticalAlign=middle;whiteSpace=wrap;rounded=0;labelBackgroundColor=none;fontColor=#000000;" parent="YxBBm7fmbjpThuYFnLMb-1" vertex="1">
          <mxGeometry x="709" y="885" width="40" height="20" as="geometry" />
        </mxCell>
        <mxCell id="YxBBm7fmbjpThuYFnLMb-94" value="&lt;font style=&quot;font-size: 15px&quot;&gt;yes&lt;/font&gt;" style="text;html=1;strokeColor=none;fillColor=none;align=center;verticalAlign=middle;whiteSpace=wrap;rounded=0;labelBackgroundColor=none;fontColor=#000000;" parent="YxBBm7fmbjpThuYFnLMb-1" vertex="1">
          <mxGeometry x="627" y="872" width="40" height="20" as="geometry" />
        </mxCell>
        <mxCell id="YxBBm7fmbjpThuYFnLMb-95" value="&lt;font style=&quot;font-size: 15px&quot;&gt;yes&lt;/font&gt;" style="text;html=1;strokeColor=none;fillColor=none;align=center;verticalAlign=middle;whiteSpace=wrap;rounded=0;labelBackgroundColor=none;fontColor=#000000;" parent="YxBBm7fmbjpThuYFnLMb-1" vertex="1">
          <mxGeometry x="440" y="631" width="40" height="20" as="geometry" />
        </mxCell>
        <mxCell id="YxBBm7fmbjpThuYFnLMb-96" value="&lt;font style=&quot;font-size: 15px&quot;&gt;no&lt;/font&gt;" style="text;html=1;strokeColor=none;fillColor=none;align=center;verticalAlign=middle;whiteSpace=wrap;rounded=0;labelBackgroundColor=none;fontColor=#000000;" parent="YxBBm7fmbjpThuYFnLMb-1" vertex="1">
          <mxGeometry x="369" y="562" width="40" height="20" as="geometry" />
        </mxCell>
        <mxCell id="YxBBm7fmbjpThuYFnLMb-97" value="&lt;font style=&quot;font-size: 15px&quot;&gt;no&lt;/font&gt;" style="text;html=1;strokeColor=none;fillColor=none;align=center;verticalAlign=middle;whiteSpace=wrap;rounded=0;labelBackgroundColor=none;fontColor=#000000;" parent="YxBBm7fmbjpThuYFnLMb-1" vertex="1">
          <mxGeometry x="129.25" y="428" width="40" height="20" as="geometry" />
        </mxCell>
        <mxCell id="YxBBm7fmbjpThuYFnLMb-98" value="&lt;font style=&quot;font-size: 15px&quot;&gt;yes&lt;/font&gt;" style="text;html=1;strokeColor=none;fillColor=none;align=center;verticalAlign=middle;whiteSpace=wrap;rounded=0;labelBackgroundColor=none;fontColor=#000000;" parent="YxBBm7fmbjpThuYFnLMb-1" vertex="1">
          <mxGeometry x="67" y="566" width="40" height="20" as="geometry" />
        </mxCell>
        <mxCell id="YxBBm7fmbjpThuYFnLMb-99" value="&lt;font style=&quot;font-size: 15px&quot;&gt;yes&lt;/font&gt;" style="text;html=1;strokeColor=none;fillColor=none;align=center;verticalAlign=middle;whiteSpace=wrap;rounded=0;labelBackgroundColor=none;fontColor=#000000;" parent="YxBBm7fmbjpThuYFnLMb-1" vertex="1">
          <mxGeometry x="120" y="720" width="40" height="20" as="geometry" />
        </mxCell>
        <mxCell id="YxBBm7fmbjpThuYFnLMb-100" value="&lt;font style=&quot;font-size: 15px&quot;&gt;no&lt;/font&gt;" style="text;html=1;strokeColor=none;fillColor=none;align=center;verticalAlign=middle;whiteSpace=wrap;rounded=0;labelBackgroundColor=none;fontColor=#000000;" parent="YxBBm7fmbjpThuYFnLMb-1" vertex="1">
          <mxGeometry x="64" y="759" width="40" height="20" as="geometry" />
        </mxCell>
        <mxCell id="YxBBm7fmbjpThuYFnLMb-101" value="&lt;font style=&quot;font-size: 15px&quot;&gt;no&lt;/font&gt;" style="text;html=1;strokeColor=none;fillColor=none;align=center;verticalAlign=middle;whiteSpace=wrap;rounded=0;labelBackgroundColor=none;fontColor=#000000;" parent="YxBBm7fmbjpThuYFnLMb-1" vertex="1">
          <mxGeometry x="130" y="813" width="40" height="20" as="geometry" />
        </mxCell>
        <mxCell id="YxBBm7fmbjpThuYFnLMb-102" value="&lt;font style=&quot;font-size: 15px&quot;&gt;yes&lt;/font&gt;" style="text;html=1;strokeColor=none;fillColor=none;align=center;verticalAlign=middle;whiteSpace=wrap;rounded=0;labelBackgroundColor=none;fontColor=#000000;" parent="YxBBm7fmbjpThuYFnLMb-1" vertex="1">
          <mxGeometry x="305" y="880" width="40" height="20" as="geometry" />
        </mxCell>
        <mxCell id="YxBBm7fmbjpThuYFnLMb-103" value="&lt;font style=&quot;font-size: 15px&quot;&gt;yes&lt;/font&gt;" style="text;html=1;strokeColor=none;fillColor=none;align=center;verticalAlign=middle;whiteSpace=wrap;rounded=0;labelBackgroundColor=none;fontColor=#000000;" parent="YxBBm7fmbjpThuYFnLMb-1" vertex="1">
          <mxGeometry x="64" y="880" width="40" height="20" as="geometry" />
        </mxCell>
        <mxCell id="YxBBm7fmbjpThuYFnLMb-104" value="&lt;font style=&quot;font-size: 15px&quot;&gt;no&lt;/font&gt;" style="text;html=1;strokeColor=none;fillColor=none;align=center;verticalAlign=middle;whiteSpace=wrap;rounded=0;labelBackgroundColor=none;fontColor=#000000;" parent="YxBBm7fmbjpThuYFnLMb-1" vertex="1">
          <mxGeometry x="381" y="812" width="40" height="20" as="geometry" />
        </mxCell>
        <mxCell id="YxBBm7fmbjpThuYFnLMb-105" value="&lt;font style=&quot;font-size: 15px&quot;&gt;no&lt;/font&gt;" style="text;html=1;strokeColor=none;fillColor=none;align=center;verticalAlign=middle;whiteSpace=wrap;rounded=0;labelBackgroundColor=none;fontColor=#000000;" parent="YxBBm7fmbjpThuYFnLMb-1" vertex="1">
          <mxGeometry x="366" y="698" width="40" height="20" as="geometry" />
        </mxCell>
        <mxCell id="YxBBm7fmbjpThuYFnLMb-106" value="&lt;font style=&quot;font-size: 15px&quot;&gt;yes&lt;/font&gt;" style="text;html=1;strokeColor=none;fillColor=none;align=center;verticalAlign=middle;whiteSpace=wrap;rounded=0;labelBackgroundColor=none;fontColor=#000000;" parent="YxBBm7fmbjpThuYFnLMb-1" vertex="1">
          <mxGeometry x="145" y="270" width="40" height="20" as="geometry" />
        </mxCell>
        <mxCell id="YxBBm7fmbjpThuYFnLMb-107" value="&lt;font style=&quot;font-size: 15px&quot;&gt;yes&lt;/font&gt;" style="text;html=1;strokeColor=none;fillColor=none;align=center;verticalAlign=middle;whiteSpace=wrap;rounded=0;labelBackgroundColor=none;fontColor=#000000;" parent="YxBBm7fmbjpThuYFnLMb-1" vertex="1">
          <mxGeometry x="312" y="270" width="40" height="20" as="geometry" />
        </mxCell>
        <mxCell id="YxBBm7fmbjpThuYFnLMb-108" value="&lt;font style=&quot;font-size: 15px&quot;&gt;yes&lt;/font&gt;" style="text;html=1;strokeColor=none;fillColor=none;align=center;verticalAlign=middle;whiteSpace=wrap;rounded=0;labelBackgroundColor=none;fontColor=#000000;" parent="YxBBm7fmbjpThuYFnLMb-1" vertex="1">
          <mxGeometry x="482" y="270" width="40" height="20" as="geometry" />
        </mxCell>
      </root>
    </mxGraphModel>
  </diagram>
</mxfile>
